OctagonVariable-VROT30.ufo
<glyph name="exclam" format="2">
  <advance width="240"/>
  <unicode hex="0021"/>
  <outline>
    <contour>
      <point x="75" y="240" type="line"/>
      <point x="166" y="240" type="line"/>
      <point x="166" y="260" type="line"/>
      <point x="75" y="260" type="line"/>
    </contour>
    <contour>
      <point x="75" y="240" type="line"/>
      <point x="95" y="240" type="line"/>
      <point x="30" y="550" type="line"/>
      <point x="10" y="550" type="line"/>
    </contour>
    <contour>
      <point x="110" y="250" type="line"/>
      <point x="130" y="250" type="line"/>
      <point x="130" y="513" type="line"/>
      <point x="110" y="513" type="line"/>
    </contour>
    <contour>
      <point x="146" y="240" type="line"/>
      <point x="166" y="240" type="line"/>
      <point x="230" y="550" type="line"/>
      <point x="210" y="550" type="line"/>
    </contour>
    <contour>
      <point x="112" y="496" type="line"/>
      <point x="125" y="511" type="line"/>
      <point x="31" y="545" type="line"/>
      <point x="18" y="530" type="line"/>
    </contour>
    <contour>
      <point x="19" y="530" type="line"/>
      <point x="220" y="530" type="line"/>
      <point x="220" y="550" type="line"/>
      <point x="19" y="550" type="line"/>
    </contour>
    <contour>
      <point x="127" y="496" type="line"/>
      <point x="221" y="530" type="line"/>
      <point x="208" y="545" type="line"/>
      <point x="114" y="511" type="line"/>
    </contour>
    <contour>
      <point x="37" y="50" type="line"/>
      <point x="202" y="50" type="line"/>
      <point x="202" y="68" type="line"/>
      <point x="37" y="68" type="line"/>
    </contour>
    <contour>
      <point x="51" y="50" type="line"/>
      <point x="122" y="169" type="line"/>
      <point x="113" y="189" type="line"/>
      <point x="37" y="64" type="line"/>
    </contour>
    <contour>
      <point x="188" y="50" type="line"/>
      <point x="202" y="64" type="line"/>
      <point x="125" y="190" type="line"/>
      <point x="116" y="170" type="line"/>
    </contour>
    <contour>
      <point x="37" y="50" type="line"/>
      <point x="57" y="50" type="line"/>
      <point x="57" y="225" type="line"/>
      <point x="37" y="225" type="line"/>
    </contour>
    <contour>
      <point x="113" y="174" type="line"/>
      <point x="126" y="174" type="line"/>
      <point x="126" y="191" type="line"/>
      <point x="113" y="191" type="line"/>
    </contour>
    <contour>
      <point x="182" y="50" type="line"/>
      <point x="202" y="50" type="line"/>
      <point x="202" y="225" type="line"/>
      <point x="182" y="225" type="line"/>
    </contour>
    <contour>
      <point x="114" y="176" type="line"/>
      <point x="123" y="196" type="line"/>
      <point x="51" y="225" type="line"/>
      <point x="37" y="211" type="line"/>
    </contour>
    <contour>
      <point x="40" y="207" type="line"/>
      <point x="202" y="207" type="line"/>
      <point x="202" y="225" type="line"/>
      <point x="40" y="225" type="line"/>
    </contour>
    <contour>
      <point x="125" y="176" type="line"/>
      <point x="201" y="211" type="line"/>
      <point x="187" y="225" type="line"/>
      <point x="116" y="196" type="line"/>
    </contour>
  </outline>
</glyph>
<glyph name="ampersand" format="2">
  <advance width="642"/>
  <unicode hex="0026"/>
  <outline>
    <contour>
      <point x="381" y="50" type="line"/>
      <point x="625" y="50" type="line"/>
      <point x="625" y="70" type="line"/>
      <point x="381" y="70" type="line"/>
    </contour>
    <contour>
      <point x="468" y="182" type="line"/>
      <point x="537" y="182" type="line"/>
      <point x="537" y="202" type="line"/>
      <point x="468" y="202" type="line"/>
    </contour>
    <contour>
      <point x="522" y="211" type="line"/>
      <point x="622" y="211" type="line"/>
      <point x="622" y="230" type="line"/>
      <point x="522" y="230" type="line"/>
    </contour>
    <contour>
      <point x="609" y="57" type="line"/>
      <point x="623" y="70" type="line"/>
      <point x="535" y="200" type="line"/>
      <point x="519" y="188" type="line"/>
    </contour>
    <contour>
      <point x="612" y="50" type="line"/>
      <point x="632" y="50" type="line"/>
      <point x="632" y="230" type="line"/>
      <point x="612" y="230" type="line"/>
    </contour>
    <contour>
      <point x="609" y="227" type="line"/>
      <point x="522" y="198" type="line"/>
      <point x="535" y="180" type="line"/>
      <point x="623" y="214" type="line"/>
    </contour>
    <contour>
      <point x="392" y="52" type="line"/>
      <point x="478" y="191" type="line"/>
      <point x="461" y="201" type="line"/>
      <point x="377" y="65" type="line"/>
    </contour>
    <contour>
      <point x="529" y="230" type="line"/>
      <point x="464" y="204" type="line"/>
      <point x="475" y="189" type="line"/>
      <point x="543" y="217" type="line"/>
    </contour>
    <contour>
      <point x="266" y="378" type="line"/>
      <point x="282" y="390" type="line"/>
      <point x="231" y="452" type="line"/>
      <point x="215" y="440" type="line"/>
    </contour>
    <contour>
      <point x="345" y="424" type="line"/>
      <point x="361" y="436" type="line"/>
      <point x="340" y="460" type="line"/>
      <point x="324" y="448" type="line"/>
    </contour>
    <contour>
      <point x="163" y="316" type="line"/>
      <point x="181" y="328" type="line"/>
      <point x="135" y="386" type="line"/>
      <point x="110" y="383" type="line"/>
    </contour>
    <contour>
      <point x="523" y="402" type="line"/>
      <point x="256" y="233" type="line"/>
      <point x="272" y="220" type="line"/>
      <point x="536" y="387" type="line"/>
    </contour>
    <contour>
      <point x="526" y="375" type="line"/>
      <point x="232" y="185" type="line"/>
      <point x="243" y="169" type="line"/>
      <point x="540" y="362" type="line"/>
    </contour>
    <contour>
      <point x="609" y="344" type="line"/>
      <point x="201" y="66" type="line"/>
      <point x="212" y="50" type="line"/>
      <point x="627" y="337" type="line"/>
    </contour>
    <contour>
      <point x="139" y="168" type="line"/>
      <point x="243" y="169" type="line"/>
      <point x="243" y="189" type="line"/>
      <point x="139" y="188" type="line"/>
    </contour>
    <contour>
      <point x="85" y="50" type="line"/>
      <point x="212" y="50" type="line"/>
      <point x="212" y="70" type="line"/>
      <point x="85" y="70" type="line"/>
    </contour>
    <contour>
      <point x="428" y="467" type="line"/>
      <point x="136" y="291" type="line"/>
      <point x="151" y="284" type="line"/>
      <point x="444" y="457" type="line"/>
    </contour>
    <contour>
      <point x="477" y="433" type="line"/>
      <point x="198" y="259" type="line"/>
      <point x="220" y="258" type="line"/>
      <point x="491" y="420" type="line"/>
    </contour>
    <contour>
      <point x="392" y="468" type="line"/>
      <point x="49" y="264" type="line"/>
      <point x="58" y="249" type="line"/>
      <point x="404" y="456" type="line"/>
    </contour>
    <contour>
      <point x="25" y="145" type="line"/>
      <point x="10" y="131" type="line"/>
      <point x="85" y="50" type="line"/>
      <point x="99" y="64" type="line"/>
    </contour>
    <contour>
      <point x="108" y="228" type="line"/>
      <point x="93" y="214" type="line"/>
      <point x="139" y="168" type="line"/>
      <point x="153" y="182" type="line"/>
    </contour>
    <contour>
      <point x="94" y="55" type="line"/>
      <point x="153" y="176" type="line"/>
      <point x="137" y="188" type="line"/>
      <point x="80" y="68" type="line"/>
    </contour>
    <contour>
      <point x="217" y="67" type="line"/>
      <point x="250" y="180" type="line"/>
      <point x="228" y="181" type="line"/>
      <point x="194" y="60" type="line"/>
    </contour>
    <contour>
      <point x="149" y="177" type="line"/>
      <point x="207" y="203" type="line"/>
      <point x="198" y="221" type="line"/>
      <point x="135" y="190" type="line"/>
    </contour>
    <contour>
      <point x="198" y="200" type="line"/>
      <point x="272" y="220" type="line"/>
      <point x="272" y="238" type="line"/>
      <point x="199" y="220" type="line"/>
    </contour>
    <contour>
      <point x="186" y="246" type="line"/>
      <point x="172" y="233" type="line"/>
      <point x="198" y="201" type="line"/>
      <point x="211" y="214" type="line"/>
    </contour>
    <contour>
      <point x="169" y="237" type="line"/>
      <point x="188" y="229" type="line"/>
      <point x="221" y="258" type="line"/>
      <point x="200" y="259" type="line"/>
    </contour>
    <contour>
      <point x="243" y="170" type="line"/>
      <point x="274" y="222" type="line"/>
      <point x="254" y="229" type="line"/>
      <point x="230" y="183" type="line"/>
    </contour>
    <contour>
      <point x="514" y="360" type="line"/>
      <point x="533" y="363" type="line"/>
      <point x="532" y="389" type="line"/>
      <point x="513" y="389" type="line"/>
    </contour>
    <contour>
      <point x="525" y="371" type="line"/>
      <point x="523" y="354" type="line"/>
      <point x="609" y="324" type="line"/>
      <point x="612" y="340" type="line"/>
    </contour>
    <contour>
      <point x="613" y="328" type="line"/>
      <point x="627" y="337" type="line"/>
      <point x="523" y="402" type="line"/>
      <point x="513" y="390" type="line"/>
    </contour>
    <contour>
      <point x="10" y="131" type="line"/>
      <point x="30" y="131" type="line"/>
      <point x="30" y="186" type="line"/>
      <point x="10" y="186" type="line"/>
    </contour>
    <contour>
      <point x="28" y="178" type="line"/>
      <point x="67" y="257" type="line"/>
      <point x="49" y="264" type="line"/>
      <point x="10" y="186" type="line"/>
    </contour>
    <contour>
      <point x="254" y="221" type="line"/>
      <point x="272" y="230" type="line"/>
      <point x="224" y="272" type="line"/>
      <point x="207" y="262" type="line"/>
    </contour>
    <contour>
      <point x="450" y="225" type="line"/>
      <point x="434" y="214" type="line"/>
      <point x="465" y="182" type="line"/>
      <point x="479" y="195" type="line"/>
    </contour>
    <contour>
      <point x="325" y="146" type="line"/>
      <point x="310" y="134" type="line"/>
      <point x="381" y="50" type="line"/>
      <point x="395" y="63" type="line"/>
    </contour>
    <contour>
      <point x="507" y="263" type="line"/>
      <point x="492" y="251" type="line"/>
      <point x="530" y="215" type="line"/>
      <point x="544" y="228" type="line"/>
    </contour>
    <contour>
      <point x="332" y="337" type="line"/>
      <point x="315" y="325" type="line"/>
      <point x="353" y="284" type="line"/>
      <point x="370" y="295" type="line"/>
    </contour>
    <contour>
      <point x="404" y="381" type="line"/>
      <point x="388" y="370" type="line"/>
      <point x="427" y="328" type="line"/>
      <point x="442" y="341" type="line"/>
    </contour>
    <contour>
      <point x="232" y="479" type="line"/>
      <point x="214" y="477" type="line"/>
      <point x="215" y="440" type="line"/>
      <point x="235" y="444" type="line"/>
    </contour>
    <contour>
      <point x="111" y="209" type="line"/>
      <point x="156" y="288" type="line"/>
      <point x="136" y="291" type="line"/>
      <point x="93" y="214" type="line"/>
    </contour>
    <contour>
      <point x="24" y="125" type="line"/>
      <point x="115" y="216" type="line"/>
      <point x="111" y="239" type="line"/>
      <point x="16" y="143" type="line"/>
    </contour>
    <contour>
      <point x="47" y="250" type="line"/>
      <point x="141" y="278" type="line"/>
      <point x="153" y="300" type="line"/>
      <point x="62" y="271" type="line"/>
    </contour>
    <contour>
      <point x="333" y="463" type="line"/>
      <point x="225" y="455" type="line"/>
      <point x="230" y="439" type="line"/>
      <point x="340" y="447" type="line"/>
    </contour>
    <contour>
      <point x="110" y="383" type="line"/>
      <point x="132" y="383" type="line"/>
      <point x="132" y="444" type="line"/>
      <point x="110" y="447" type="line"/>
    </contour>
    <contour>
      <point x="471" y="420" type="line"/>
      <point x="491" y="420" type="line"/>
      <point x="491" y="492" type="line"/>
      <point x="471" y="492" type="line"/>
    </contour>
    <contour>
      <point x="324" y="448" type="line"/>
      <point x="344" y="448" type="line"/>
      <point x="344" y="472" type="line"/>
      <point x="324" y="462" type="line"/>
    </contour>
    <contour>
      <point x="385" y="458" type="line"/>
      <point x="404" y="456" type="line"/>
      <point x="404" y="469" type="line"/>
      <point x="386" y="473" type="line"/>
    </contour>
    <contour>
      <point x="430" y="475" type="line"/>
      <point x="423" y="457" type="line"/>
      <point x="481" y="420" type="line"/>
      <point x="486" y="438" type="line"/>
    </contour>
    <contour>
      <point x="422" y="462" type="line"/>
      <point x="441" y="462" type="line"/>
      <point x="441" y="487" type="line"/>
      <point x="422" y="487" type="line"/>
    </contour>
    <contour>
      <point x="184" y="245" type="line"/>
      <point x="104" y="230" type="line"/>
      <point x="105" y="211" type="line"/>
      <point x="191" y="231" type="line"/>
    </contour>
    <contour>
      <point x="141" y="278" type="line"/>
      <point x="194" y="248" type="line"/>
      <point x="210" y="263" type="line"/>
      <point x="149" y="294" type="line"/>
    </contour>
    <contour>
      <point x="211" y="478" type="line"/>
      <point x="227" y="468" type="line"/>
      <point x="285" y="514" type="line"/>
      <point x="268" y="526" type="line"/>
    </contour>
    <contour>
      <point x="129" y="372" type="line"/>
      <point x="230" y="438" type="line"/>
      <point x="227" y="460" type="line"/>
      <point x="120" y="388" type="line"/>
    </contour>
    <contour>
      <point x="117" y="437" type="line"/>
      <point x="223" y="468" type="line"/>
      <point x="229" y="485" type="line"/>
      <point x="123" y="454" type="line"/>
    </contour>
    <contour>
      <point x="110" y="447" type="line"/>
      <point x="127" y="439" type="line"/>
      <point x="256" y="537" type="line"/>
      <point x="242" y="550" type="line"/>
    </contour>
    <contour>
      <point x="272" y="509" type="line"/>
      <point x="378" y="509" type="line"/>
      <point x="379" y="526" type="line"/>
      <point x="268" y="526" type="line"/>
    </contour>
    <contour>
      <point x="243" y="530" type="line"/>
      <point x="408" y="530" type="line"/>
      <point x="406" y="550" type="line"/>
      <point x="242" y="550" type="line"/>
    </contour>
    <contour>
      <point x="366" y="481" type="line"/>
      <point x="384" y="478" type="line"/>
      <point x="387" y="515" type="line"/>
      <point x="370" y="519" type="line"/>
    </contour>
    <contour>
      <point x="491" y="492" type="line"/>
      <point x="406" y="550" type="line"/>
      <point x="394" y="536" type="line"/>
      <point x="473" y="483" type="line"/>
    </contour>
    <contour>
      <point x="441" y="487" type="line"/>
      <point x="379" y="526" type="line"/>
      <point x="370" y="513" type="line"/>
      <point x="429" y="476" type="line"/>
    </contour>
    <contour>
      <point x="404" y="469" type="line"/>
      <point x="378" y="484" type="line"/>
      <point x="363" y="472" type="line"/>
      <point x="387" y="458" type="line"/>
    </contour>
    <contour>
      <point x="324" y="462" type="line"/>
      <point x="342" y="455" type="line"/>
      <point x="361" y="472" type="line"/>
      <point x="348" y="484" type="line"/>
    </contour>
    <contour>
      <point x="344" y="465" type="line"/>
      <point x="379" y="465" type="line"/>
      <point x="379" y="484" type="line"/>
      <point x="348" y="484" type="line"/>
    </contour>
    <contour>
      <point x="237" y="534" type="line"/>
      <point x="275" y="508" type="line"/>
      <point x="290" y="520" type="line"/>
      <point x="249" y="544" type="line"/>
    </contour>
    <contour>
      <point x="414" y="540" type="line"/>
      <point x="403" y="550" type="line"/>
      <point x="371" y="523" type="line"/>
      <point x="386" y="513" type="line"/>
    </contour>
  </outline>
</glyph>
<glyph name="quotesingle" format="2">
  <advance width="132"/>
  <unicode hex="0027"/>
  <outline>
    <contour>
      <point x="30" y="343" type="line"/>
      <point x="102" y="343" type="line"/>
      <point x="102" y="356" type="line"/>
      <point x="30" y="356" type="line"/>
    </contour>
    <contour>
      <point x="41" y="343" type="line"/>
      <point x="70" y="498" type="line"/>
      <point x="59" y="514" type="line"/>
      <point x="30" y="354" type="line"/>
    </contour>
    <contour>
      <point x="90" y="343" type="line"/>
      <point x="102" y="354" type="line"/>
      <point x="72" y="515" type="line"/>
      <point x="61" y="498" type="line"/>
    </contour>
    <contour>
      <point x="30" y="343" type="line"/>
      <point x="44" y="343" type="line"/>
      <point x="44" y="555" type="line"/>
      <point x="30" y="555" type="line"/>
    </contour>
    <contour>
      <point x="59" y="502" type="line"/>
      <point x="73" y="502" type="line"/>
      <point x="73" y="515" type="line"/>
      <point x="59" y="515" type="line"/>
    </contour>
    <contour>
      <point x="88" y="343" type="line"/>
      <point x="102" y="343" type="line"/>
      <point x="102" y="555" type="line"/>
      <point x="88" y="555" type="line"/>
    </contour>
    <contour>
      <point x="60" y="505" type="line"/>
      <point x="68" y="519" type="line"/>
      <point x="41" y="555" type="line"/>
      <point x="30" y="545" type="line"/>
    </contour>
    <contour>
      <point x="32" y="541" type="line"/>
      <point x="102" y="541" type="line"/>
      <point x="102" y="555" type="line"/>
      <point x="32" y="555" type="line"/>
    </contour>
    <contour>
      <point x="72" y="505" type="line"/>
      <point x="101" y="545" type="line"/>
      <point x="90" y="555" type="line"/>
      <point x="63" y="519" type="line"/>
    </contour>
  </outline>
</glyph>
<glyph name="asterisk" format="2">
  <advance width="382"/>
  <unicode hex="002A"/>
  <outline>
    <contour>
      <point x="111" y="340" type="line"/>
      <point x="208" y="395" type="line"/>
      <point x="198" y="405" type="line"/>
      <point x="103" y="353" type="line"/>
    </contour>
    <contour>
      <point x="55" y="559" type="line"/>
      <point x="67" y="548" type="line"/>
      <point x="99" y="580" type="line"/>
      <point x="87" y="591" type="line"/>
    </contour>
    <contour>
      <point x="77" y="370" type="line"/>
      <point x="109" y="339" type="line"/>
      <point x="120" y="350" type="line"/>
      <point x="89" y="382" type="line"/>
    </contour>
    <contour>
      <point x="130" y="456" type="line"/>
      <point x="140" y="466" type="line"/>
      <point x="67" y="567" type="line"/>
      <point x="55" y="559" type="line"/>
    </contour>
    <contour>
      <point x="77" y="370" type="line"/>
      <point x="91" y="364" type="line"/>
      <point x="141" y="455" type="line"/>
      <point x="130" y="466" type="line"/>
    </contour>
    <contour>
      <point x="86" y="362" type="line"/>
      <point x="183" y="436" type="line"/>
      <point x="176" y="447" type="line"/>
      <point x="85" y="378" type="line"/>
    </contour>
    <contour>
      <point x="63" y="551" type="line"/>
      <point x="180" y="487" type="line"/>
      <point x="183" y="500" type="line"/>
      <point x="63" y="567" type="line"/>
    </contour>
    <contour>
      <point x="101" y="346" type="line"/>
      <point x="117" y="346" type="line"/>
      <point x="186" y="437" type="line"/>
      <point x="176" y="445" type="line"/>
    </contour>
    <contour>
      <point x="175" y="492" type="line"/>
      <point x="189" y="496" type="line"/>
      <point x="96" y="584" type="line"/>
      <point x="79" y="583" type="line"/>
    </contour>
    <contour>
      <point x="79" y="578" type="line"/>
      <point x="181" y="504" type="line"/>
      <point x="192" y="515" type="line"/>
      <point x="87" y="591" type="line"/>
    </contour>
    <contour>
      <point x="126" y="452" type="line"/>
      <point x="199" y="459" type="line"/>
      <point x="201" y="474" type="line"/>
      <point x="127" y="467" type="line"/>
    </contour>
    <contour>
      <point x="190" y="397" type="line"/>
      <point x="205" y="397" type="line"/>
      <point x="214" y="471" type="line"/>
      <point x="197" y="470" type="line"/>
    </contour>
    <contour>
      <point x="174" y="445" type="line"/>
      <point x="184" y="435" type="line"/>
      <point x="245" y="496" type="line"/>
      <point x="235" y="505" type="line"/>
    </contour>
    <contour>
      <point x="174" y="491" type="line"/>
      <point x="228" y="438" type="line"/>
      <point x="238" y="447" type="line"/>
      <point x="184" y="501" type="line"/>
    </contour>
    <contour>
      <point x="198" y="467" type="line"/>
      <point x="215" y="468" type="line"/>
      <point x="195" y="513" type="line"/>
      <point x="178" y="513" type="line"/>
    </contour>
    <contour>
      <point x="205" y="459" type="line"/>
      <point x="252" y="439" type="line"/>
      <point x="253" y="455" type="line"/>
      <point x="206" y="475" type="line"/>
    </contour>
    <contour>
      <point x="193" y="394" type="line"/>
      <point x="295" y="319" type="line"/>
      <point x="302" y="331" type="line"/>
      <point x="203" y="404" type="line"/>
    </contour>
    <contour>
      <point x="178" y="513" type="line"/>
      <point x="188" y="503" type="line"/>
      <point x="283" y="555" type="line"/>
      <point x="275" y="568" type="line"/>
    </contour>
    <contour>
      <point x="287" y="327" type="line"/>
      <point x="303" y="327" type="line"/>
      <point x="236" y="446" type="line"/>
      <point x="223" y="444" type="line"/>
    </contour>
    <contour>
      <point x="238" y="507" type="line"/>
      <point x="244" y="497" type="line"/>
      <point x="283" y="559" type="line"/>
      <point x="266" y="559" type="line"/>
    </contour>
    <contour>
      <point x="228" y="439" type="line"/>
      <point x="319" y="343" type="line"/>
      <point x="320" y="360" type="line"/>
      <point x="232" y="453" type="line"/>
    </contour>
    <contour>
      <point x="246" y="498" type="line"/>
      <point x="298" y="527" type="line"/>
      <point x="299" y="544" type="line"/>
      <point x="235" y="504" type="line"/>
    </contour>
    <contour>
      <point x="314" y="346" type="line"/>
      <point x="327" y="351" type="line"/>
      <point x="249" y="457" type="line"/>
      <point x="239" y="447" type="line"/>
    </contour>
    <contour>
      <point x="241" y="448" type="line"/>
      <point x="251" y="438" type="line"/>
      <point x="306" y="536" type="line"/>
      <point x="294" y="544" type="line"/>
    </contour>
    <contour>
      <point x="284" y="331" type="line"/>
      <point x="295" y="319" type="line"/>
      <point x="327" y="351" type="line"/>
      <point x="316" y="363" type="line"/>
    </contour>
    <contour>
      <point x="263" y="556" type="line"/>
      <point x="294" y="524" type="line"/>
      <point x="306" y="536" type="line"/>
      <point x="275" y="568" type="line"/>
    </contour>
  </outline>
</glyph>
<glyph name="plus" format="2">
  <advance width="461"/>
  <unicode hex="002B"/>
  <outline>
    <contour>
      <point x="262" y="123" type="line"/>
      <point x="280" y="123" type="line"/>
      <point x="280" y="459" type="line"/>
      <point x="262" y="459" type="line"/>
    </contour>
    <contour>
      <point x="15" y="264" type="line"/>
      <point x="32" y="264" type="line"/>
      <point x="32" y="349" type="line"/>
      <point x="15" y="349" type="line"/>
    </contour>
    <contour>
      <point x="31" y="264" type="line"/>
      <point x="81" y="311" type="line"/>
      <point x="68" y="321" type="line"/>
      <point x="17" y="274" type="line"/>
    </contour>
    <contour>
      <point x="189" y="123" type="line"/>
      <point x="280" y="123" type="line"/>
      <point x="280" y="141" type="line"/>
      <point x="189" y="141" type="line"/>
    </contour>
    <contour>
      <point x="194" y="123" type="line"/>
      <point x="239" y="194" type="line"/>
      <point x="232" y="209" type="line"/>
      <point x="188" y="139" type="line"/>
    </contour>
    <contour>
      <point x="15" y="264" type="line"/>
      <point x="188" y="264" type="line"/>
      <point x="188" y="281" type="line"/>
      <point x="15" y="281" type="line"/>
    </contour>
    <contour>
      <point x="68" y="312" type="line"/>
      <point x="81" y="322" type="line"/>
      <point x="31" y="349" type="line"/>
      <point x="17" y="339" type="line"/>
    </contour>
    <contour>
      <point x="266" y="124" type="line"/>
      <point x="279" y="136" type="line"/>
      <point x="234" y="206" type="line"/>
      <point x="223" y="193" type="line"/>
    </contour>
    <contour>
      <point x="63" y="308" type="line"/>
      <point x="188" y="308" type="line"/>
      <point x="188" y="325" type="line"/>
      <point x="63" y="325" type="line"/>
    </contour>
    <contour>
      <point x="15" y="332" type="line"/>
      <point x="188" y="332" type="line"/>
      <point x="188" y="349" type="line"/>
      <point x="15" y="349" type="line"/>
    </contour>
    <contour>
      <point x="181" y="123" type="line"/>
      <point x="199" y="123" type="line"/>
      <point x="199" y="459" type="line"/>
      <point x="181" y="459" type="line"/>
    </contour>
    <contour>
      <point x="239" y="187" type="line"/>
      <point x="239" y="449" type="line"/>
      <point x="224" y="449" type="line"/>
      <point x="224" y="187" type="line"/>
    </contour>
    <contour>
      <point x="277" y="265" type="line"/>
      <point x="446" y="265" type="line"/>
      <point x="446" y="282" type="line"/>
      <point x="277" y="282" type="line"/>
    </contour>
    <contour>
      <point x="277" y="309" type="line"/>
      <point x="398" y="309" type="line"/>
      <point x="398" y="326" type="line"/>
      <point x="277" y="326" type="line"/>
    </contour>
    <contour>
      <point x="228" y="439" type="line"/>
      <point x="239" y="452" type="line"/>
      <point x="195" y="471" type="line"/>
      <point x="182" y="459" type="line"/>
    </contour>
    <contour>
      <point x="430" y="265" type="line"/>
      <point x="444" y="275" type="line"/>
      <point x="393" y="322" type="line"/>
      <point x="380" y="312" type="line"/>
    </contour>
    <contour>
      <point x="277" y="333" type="line"/>
      <point x="446" y="333" type="line"/>
      <point x="446" y="350" type="line"/>
      <point x="277" y="350" type="line"/>
    </contour>
    <contour>
      <point x="230" y="436" type="line"/>
      <point x="273" y="456" type="line"/>
      <point x="267" y="472" type="line"/>
      <point x="223" y="451" type="line"/>
    </contour>
    <contour>
      <point x="181" y="454" type="line"/>
      <point x="280" y="454" type="line"/>
      <point x="280" y="472" type="line"/>
      <point x="181" y="472" type="line"/>
    </contour>
    <contour>
      <point x="393" y="313" type="line"/>
      <point x="444" y="340" type="line"/>
      <point x="430" y="350" type="line"/>
      <point x="380" y="323" type="line"/>
    </contour>
    <contour>
      <point x="429" y="265" type="line"/>
      <point x="446" y="265" type="line"/>
      <point x="446" y="350" type="line"/>
      <point x="429" y="350" type="line"/>
    </contour>
  </outline>
</glyph>
<glyph name="comma" format="2">
  <advance width="195"/>
  <unicode hex="002C"/>
  <outline>
    <contour>
      <point x="15" y="144" type="line"/>
      <point x="180" y="144" type="line"/>
      <point x="180" y="162" type="line"/>
      <point x="15" y="162" type="line"/>
    </contour>
    <contour>
      <point x="29" y="144" type="line"/>
      <point x="100" y="256" type="line"/>
      <point x="91" y="276" type="line"/>
      <point x="15" y="158" type="line"/>
    </contour>
    <contour>
      <point x="166" y="144" type="line"/>
      <point x="180" y="158" type="line"/>
      <point x="103" y="277" type="line"/>
      <point x="94" y="257" type="line"/>
    </contour>
    <contour>
      <point x="15" y="144" type="line"/>
      <point x="35" y="144" type="line"/>
      <point x="35" y="309" type="line"/>
      <point x="15" y="309" type="line"/>
    </contour>
    <contour>
      <point x="91" y="261" type="line"/>
      <point x="104" y="261" type="line"/>
      <point x="104" y="278" type="line"/>
      <point x="91" y="278" type="line"/>
    </contour>
    <contour>
      <point x="160" y="144" type="line"/>
      <point x="180" y="144" type="line"/>
      <point x="180" y="309" type="line"/>
      <point x="160" y="309" type="line"/>
    </contour>
    <contour>
      <point x="92" y="263" type="line"/>
      <point x="101" y="283" type="line"/>
      <point x="29" y="309" type="line"/>
      <point x="15" y="295" type="line"/>
    </contour>
    <contour>
      <point x="18" y="291" type="line"/>
      <point x="180" y="291" type="line"/>
      <point x="180" y="309" type="line"/>
      <point x="18" y="309" type="line"/>
    </contour>
    <contour>
      <point x="103" y="263" type="line"/>
      <point x="179" y="295" type="line"/>
      <point x="165" y="309" type="line"/>
      <point x="94" y="283" type="line"/>
    </contour>
    <contour>
      <point x="15" y="17" type="line"/>
      <point x="35" y="17" type="line"/>
      <point x="35" y="97" type="line"/>
      <point x="15" y="100" type="line"/>
    </contour>
    <contour>
      <point x="28" y="85" type="line"/>
      <point x="94" y="144" type="line"/>
      <point x="77" y="158" type="line"/>
      <point x="15" y="100" type="line"/>
    </contour>
    <contour>
      <point x="30" y="5" type="line"/>
      <point x="180" y="144" type="line"/>
      <point x="167" y="159" type="line"/>
      <point x="15" y="18" type="line"/>
      <point x="15" y="5" type="line"/>
    </contour>
  </outline>
</glyph>
<glyph name="six" format="2">
  <advance width="501"/>
  <unicode hex="0036"/>
  <outline>
    <contour>
      <point x="25" y="293" type="line"/>
      <point x="211" y="550" type="line"/>
      <point x="191" y="550" type="line"/>
      <point x="10" y="302" type="line"/>
    </contour>
    <contour>
      <point x="119" y="50" type="line"/>
      <point x="132" y="65" type="line"/>
      <point x="25" y="186" type="line"/>
      <point x="10" y="173" type="line"/>
    </contour>
    <contour>
      <point x="129" y="55" type="line"/>
      <point x="179" y="171" type="line"/>
      <point x="162" y="180" type="line"/>
      <point x="112" y="63" type="line"/>
    </contour>
    <contour>
      <point x="26" y="168" type="line"/>
      <point x="117" y="234" type="line"/>
      <point x="110" y="253" type="line"/>
      <point x="21" y="186" type="line"/>
    </contour>
    <contour>
      <point x="10" y="173" type="line"/>
      <point x="30" y="173" type="line"/>
      <point x="30" y="308" type="line"/>
      <point x="10" y="302" type="line"/>
    </contour>
    <contour>
      <point x="166" y="165" type="line"/>
      <point x="178" y="181" type="line"/>
      <point x="113" y="250" type="line"/>
      <point x="99" y="236" type="line"/>
    </contour>
    <contour>
      <point x="119" y="50" type="line"/>
      <point x="375" y="50" type="line"/>
      <point x="375" y="70" type="line"/>
      <point x="119" y="70" type="line"/>
    </contour>
    <contour>
      <point x="111" y="231" type="line"/>
      <point x="207" y="223" type="line"/>
      <point x="200" y="239" type="line"/>
      <point x="106" y="249" type="line"/>
    </contour>
    <contour>
      <point x="180" y="172" type="line"/>
      <point x="237" y="204" type="line"/>
      <point x="223" y="214" type="line"/>
      <point x="165" y="183" type="line"/>
    </contour>
    <contour>
      <point x="99" y="236" type="line"/>
      <point x="119" y="236" type="line"/>
      <point x="119" y="315" type="line"/>
      <point x="99" y="315" type="line"/>
    </contour>
    <contour>
      <point x="166" y="165" type="line"/>
      <point x="331" y="165" type="line"/>
      <point x="331" y="185" type="line"/>
      <point x="166" y="185" type="line"/>
    </contour>
    <contour>
      <point x="108" y="300" type="line"/>
      <point x="113" y="319" type="line"/>
      <point x="21" y="309" type="line"/>
      <point x="17" y="291" type="line"/>
    </contour>
    <contour>
      <point x="224" y="197" type="line"/>
      <point x="237" y="212" type="line"/>
      <point x="207" y="239" type="line"/>
      <point x="194" y="225" type="line"/>
    </contour>
    <contour>
      <point x="365" y="57" type="line"/>
      <point x="381" y="65" type="line"/>
      <point x="332" y="181" type="line"/>
      <point x="317" y="173" type="line"/>
    </contour>
    <contour>
      <point x="224" y="197" type="line"/>
      <point x="264" y="197" type="line"/>
      <point x="264" y="218" type="line"/>
      <point x="224" y="218" type="line"/>
    </contour>
    <contour>
      <point x="194" y="225" type="line"/>
      <point x="214" y="225" type="line"/>
      <point x="214" y="261" type="line"/>
      <point x="194" y="261" type="line"/>
    </contour>
    <contour>
      <point x="321" y="172" type="line"/>
      <point x="336" y="182" type="line"/>
      <point x="263" y="214" type="line"/>
      <point x="249" y="204" type="line"/>
    </contour>
    <contour>
      <point x="202" y="246" type="line"/>
      <point x="211" y="263" type="line"/>
      <point x="118" y="316" type="line"/>
      <point x="108" y="300" type="line"/>
    </contour>
    <contour>
      <point x="264" y="197" type="line"/>
      <point x="293" y="225" type="line"/>
      <point x="276" y="235" type="line"/>
      <point x="249" y="210" type="line"/>
    </contour>
    <contour>
      <point x="110" y="301" type="line"/>
      <point x="193" y="375" type="line"/>
      <point x="183" y="389" type="line"/>
      <point x="99" y="315" type="line"/>
    </contour>
    <contour>
      <point x="331" y="165" type="line"/>
      <point x="385" y="214" type="line"/>
      <point x="372" y="226" type="line"/>
      <point x="318" y="178" type="line"/>
    </contour>
    <contour>
      <point x="210" y="248" type="line"/>
      <point x="235" y="275" type="line"/>
      <point x="223" y="290" type="line"/>
      <point x="194" y="261" type="line"/>
    </contour>
    <contour>
      <point x="370" y="206" type="line"/>
      <point x="378" y="224" type="line"/>
      <point x="287" y="238" type="line"/>
      <point x="279" y="221" type="line"/>
    </contour>
    <contour>
      <point x="375" y="50" type="line"/>
      <point x="491" y="164" type="line"/>
      <point x="480" y="180" type="line"/>
      <point x="363" y="66" type="line"/>
    </contour>
    <contour>
      <point x="273" y="225" type="line"/>
      <point x="293" y="225" type="line"/>
      <point x="293" y="262" type="line"/>
      <point x="273" y="262" type="line"/>
    </contour>
    <contour>
      <point x="221" y="273" type="line"/>
      <point x="235" y="283" type="line"/>
      <point x="188" y="383" type="line"/>
      <point x="172" y="374" type="line"/>
    </contour>
    <contour>
      <point x="223" y="269" type="line"/>
      <point x="263" y="269" type="line"/>
      <point x="263" y="290" type="line"/>
      <point x="223" y="290" type="line"/>
    </contour>
    <contour>
      <point x="279" y="248" type="line"/>
      <point x="293" y="262" type="line"/>
      <point x="263" y="290" type="line"/>
      <point x="250" y="274" type="line"/>
    </contour>
    <contour>
      <point x="480" y="159" type="line"/>
      <point x="484" y="177" type="line"/>
      <point x="377" y="227" type="line"/>
      <point x="372" y="208" type="line"/>
    </contour>
    <contour>
      <point x="183" y="369" type="line"/>
      <point x="314" y="369" type="line"/>
      <point x="314" y="389" type="line"/>
      <point x="183" y="389" type="line"/>
    </contour>
    <contour>
      <point x="265" y="273" type="line"/>
      <point x="311" y="372" type="line"/>
      <point x="297" y="383" type="line"/>
      <point x="249" y="284" type="line"/>
    </contour>
    <contour>
      <point x="287" y="247" type="line"/>
      <point x="375" y="303" type="line"/>
      <point x="368" y="320" type="line"/>
      <point x="278" y="263" type="line"/>
    </contour>
    <contour>
      <point x="365" y="214" type="line"/>
      <point x="385" y="214" type="line"/>
      <point x="385" y="320" type="line"/>
      <point x="365" y="320" type="line"/>
    </contour>
    <contour>
      <point x="117" y="307" type="line"/>
      <point x="266" y="503" type="line"/>
      <point x="247" y="509" type="line"/>
      <point x="100" y="314" type="line"/>
    </contour>
    <contour>
      <point x="195" y="373" type="line"/>
      <point x="269" y="395" type="line"/>
      <point x="245" y="402" type="line"/>
      <point x="183" y="389" type="line"/>
    </contour>
    <contour>
      <point x="373" y="305" type="line"/>
      <point x="385" y="320" type="line"/>
      <point x="304" y="389" type="line"/>
      <point x="292" y="374" type="line"/>
    </contour>
    <contour>
      <point x="471" y="164" type="line"/>
      <point x="491" y="164" type="line"/>
      <point x="491" y="301" type="line"/>
      <point x="471" y="301" type="line"/>
    </contour>
    <contour>
      <point x="310" y="370" type="line"/>
      <point x="372" y="394" type="line"/>
      <point x="358" y="407" type="line"/>
      <point x="294" y="385" type="line"/>
    </contour>
    <contour>
      <point x="244" y="393" type="line"/>
      <point x="367" y="393" type="line"/>
      <point x="367" y="413" type="line"/>
      <point x="259" y="413" type="line"/>
    </contour>
    <contour>
      <point x="377" y="304" type="line"/>
      <point x="478" y="285" type="line"/>
      <point x="471" y="304" type="line"/>
      <point x="371" y="323" type="line"/>
    </contour>
    <contour>
      <point x="481" y="286" type="line"/>
      <point x="491" y="301" type="line"/>
      <point x="367" y="413" type="line"/>
      <point x="355" y="398" type="line"/>
    </contour>
    <contour>
      <point x="249" y="495" type="line"/>
      <point x="263" y="506" type="line"/>
      <point x="200" y="542" type="line"/>
      <point x="186" y="529" type="line"/>
    </contour>
    <contour>
      <point x="245" y="402" type="line"/>
      <point x="263" y="394" type="line"/>
      <point x="407" y="550" type="line"/>
      <point x="382" y="550" type="line"/>
    </contour>
    <contour>
      <point x="256" y="492" type="line"/>
      <point x="387" y="529" type="line"/>
      <point x="378" y="546" type="line"/>
      <point x="250" y="509" type="line"/>
    </contour>
    <contour>
      <point x="194" y="528" type="line"/>
      <point x="386" y="528" type="line"/>
      <point x="386" y="550" type="line"/>
      <point x="194" y="550" type="line"/>
    </contour>
  </outline>
</glyph>
<glyph name="eight" format="2">
  <advance width="496"/>
  <unicode hex="0038"/>
  <outline>
    <contour>
      <point x="308" y="311" type="line"/>
      <point x="486" y="351" type="line"/>
      <point x="475" y="367" type="line"/>
      <point x="301" y="329" type="line"/>
    </contour>
    <contour>
      <point x="129" y="49" type="line"/>
      <point x="142" y="64" type="line"/>
      <point x="22" y="140" type="line"/>
      <point x="10" y="124" type="line"/>
    </contour>
    <contour>
      <point x="26" y="123" type="line"/>
      <point x="103" y="180" type="line"/>
      <point x="95" y="196" type="line"/>
      <point x="19" y="139" type="line"/>
    </contour>
    <contour>
      <point x="10" y="124" type="line"/>
      <point x="30" y="124" type="line"/>
      <point x="30" y="251" type="line"/>
      <point x="10" y="251" type="line"/>
    </contour>
    <contour>
      <point x="139" y="54" type="line"/>
      <point x="184" y="142" type="line"/>
      <point x="168" y="152" type="line"/>
      <point x="123" y="63" type="line"/>
    </contour>
    <contour>
      <point x="172" y="135" type="line"/>
      <point x="183" y="150" type="line"/>
      <point x="101" y="199" type="line"/>
      <point x="90" y="184" type="line"/>
    </contour>
    <contour>
      <point x="129" y="49" type="line"/>
      <point x="367" y="49" type="line"/>
      <point x="367" y="69" type="line"/>
      <point x="129" y="69" type="line"/>
    </contour>
    <contour>
      <point x="90" y="184" type="line"/>
      <point x="110" y="184" type="line"/>
      <point x="110" y="255" type="line"/>
      <point x="90" y="255" type="line"/>
    </contour>
    <contour>
      <point x="103" y="239" type="line"/>
      <point x="103" y="258" type="line"/>
      <point x="20" y="252" type="line"/>
      <point x="20" y="234" type="line"/>
    </contour>
    <contour>
      <point x="106" y="182" type="line"/>
      <point x="212" y="206" type="line"/>
      <point x="204" y="223" type="line"/>
      <point x="99" y="199" type="line"/>
    </contour>
    <contour>
      <point x="179" y="138" type="line"/>
      <point x="240" y="183" type="line"/>
      <point x="226" y="192" type="line"/>
      <point x="164" y="148" type="line"/>
    </contour>
    <contour>
      <point x="172" y="135" type="line"/>
      <point x="324" y="135" type="line"/>
      <point x="324" y="155" type="line"/>
      <point x="172" y="155" type="line"/>
    </contour>
    <contour>
      <point x="21" y="235" type="line"/>
      <point x="195" y="313" type="line"/>
      <point x="188" y="331" type="line"/>
      <point x="10" y="251" type="line"/>
    </contour>
    <contour>
      <point x="206" y="226" type="line"/>
      <point x="207" y="246" type="line"/>
      <point x="106" y="257" type="line"/>
      <point x="106" y="238" type="line"/>
    </contour>
    <contour>
      <point x="228" y="177" type="line"/>
      <point x="241" y="190" type="line"/>
      <point x="209" y="223" type="line"/>
      <point x="196" y="211" type="line"/>
    </contour>
    <contour>
      <point x="357" y="54" type="line"/>
      <point x="373" y="63" type="line"/>
      <point x="328" y="152" type="line"/>
      <point x="312" y="142" type="line"/>
    </contour>
    <contour>
      <point x="228" y="177" type="line"/>
      <point x="268" y="177" type="line"/>
      <point x="268" y="198" type="line"/>
      <point x="228" y="198" type="line"/>
    </contour>
    <contour>
      <point x="196" y="210" type="line"/>
      <point x="216" y="210" type="line"/>
      <point x="216" y="241" type="line"/>
      <point x="196" y="241" type="line"/>
    </contour>
    <contour>
      <point x="317" y="138" type="line"/>
      <point x="332" y="148" type="line"/>
      <point x="270" y="192" type="line"/>
      <point x="256" y="183" type="line"/>
    </contour>
    <contour>
      <point x="105" y="242" type="line"/>
      <point x="200" y="316" type="line"/>
      <point x="188" y="331" type="line"/>
      <point x="90" y="255" type="line"/>
    </contour>
    <contour>
      <point x="268" y="177" type="line"/>
      <point x="300" y="211" type="line"/>
      <point x="287" y="223" type="line"/>
      <point x="255" y="190" type="line"/>
    </contour>
    <contour>
      <point x="208" y="226" type="line"/>
      <point x="241" y="254" type="line"/>
      <point x="228" y="267" type="line"/>
      <point x="196" y="241" type="line"/>
    </contour>
    <contour>
      <point x="324" y="135" type="line"/>
      <point x="406" y="184" type="line"/>
      <point x="395" y="199" type="line"/>
      <point x="313" y="150" type="line"/>
    </contour>
    <contour>
      <point x="188" y="311" type="line"/>
      <point x="195" y="329" type="line"/>
      <point x="21" y="367" type="line"/>
      <point x="10" y="351" type="line"/>
    </contour>
    <contour>
      <point x="20" y="350" type="line"/>
      <point x="103" y="384" type="line"/>
      <point x="103" y="403" type="line"/>
      <point x="20" y="368" type="line"/>
    </contour>
    <contour>
      <point x="367" y="49" type="line"/>
      <point x="486" y="124" type="line"/>
      <point x="474" y="140" type="line"/>
      <point x="354" y="64" type="line"/>
    </contour>
    <contour>
      <point x="10" y="351" type="line"/>
      <point x="30" y="351" type="line"/>
      <point x="30" y="478" type="line"/>
      <point x="10" y="478" type="line"/>
    </contour>
    <contour>
      <point x="280" y="210" type="line"/>
      <point x="300" y="210" type="line"/>
      <point x="300" y="241" type="line"/>
      <point x="280" y="241" type="line"/>
    </contour>
    <contour>
      <point x="225" y="252" type="line"/>
      <point x="241" y="260" type="line"/>
      <point x="202" y="324" type="line"/>
      <point x="187" y="317" type="line"/>
    </contour>
    <contour>
      <point x="228" y="249" type="line"/>
      <point x="268" y="249" type="line"/>
      <point x="268" y="265" type="line"/>
      <point x="228" y="265" type="line"/>
    </contour>
    <contour>
      <point x="390" y="182" type="line"/>
      <point x="397" y="199" type="line"/>
      <point x="292" y="223" type="line"/>
      <point x="284" y="206" type="line"/>
    </contour>
    <contour>
      <point x="188" y="311" type="line"/>
      <point x="200" y="326" type="line"/>
      <point x="105" y="400" type="line"/>
      <point x="90" y="387" type="line"/>
    </contour>
    <contour>
      <point x="288" y="226" type="line"/>
      <point x="300" y="241" type="line"/>
      <point x="268" y="267" type="line"/>
      <point x="255" y="254" type="line"/>
    </contour>
    <contour>
      <point x="470" y="123" type="line"/>
      <point x="477" y="141" type="line"/>
      <point x="401" y="198" type="line"/>
      <point x="393" y="180" type="line"/>
    </contour>
    <contour>
      <point x="90" y="387" type="line"/>
      <point x="110" y="387" type="line"/>
      <point x="110" y="478" type="line"/>
      <point x="90" y="478" type="line"/>
    </contour>
    <contour>
      <point x="270" y="252" type="line"/>
      <point x="309" y="317" type="line"/>
      <point x="294" y="324" type="line"/>
      <point x="255" y="260" type="line"/>
    </contour>
    <contour>
      <point x="290" y="226" type="line"/>
      <point x="390" y="238" type="line"/>
      <point x="390" y="257" type="line"/>
      <point x="289" y="246" type="line"/>
    </contour>
    <contour>
      <point x="188" y="311" type="line"/>
      <point x="308" y="311" type="line"/>
      <point x="308" y="331" type="line"/>
      <point x="188" y="331" type="line"/>
    </contour>
    <contour>
      <point x="106" y="385" type="line"/>
      <point x="207" y="356" type="line"/>
      <point x="206" y="376" type="line"/>
      <point x="106" y="404" type="line"/>
    </contour>
    <contour>
      <point x="204" y="318" type="line"/>
      <point x="253" y="339" type="line"/>
      <point x="233" y="347" type="line"/>
      <point x="187" y="325" type="line"/>
    </contour>
    <contour>
      <point x="386" y="184" type="line"/>
      <point x="406" y="184" type="line"/>
      <point x="406" y="255" type="line"/>
      <point x="386" y="255" type="line"/>
    </contour>
    <contour>
      <point x="95" y="463" type="line"/>
      <point x="103" y="482" type="line"/>
      <point x="26" y="479" type="line"/>
      <point x="19" y="460" type="line"/>
    </contour>
    <contour>
      <point x="228" y="333" type="line"/>
      <point x="241" y="348" type="line"/>
      <point x="208" y="376" type="line"/>
      <point x="196" y="361" type="line"/>
    </contour>
    <contour>
      <point x="391" y="242" type="line"/>
      <point x="406" y="255" type="line"/>
      <point x="308" y="331" type="line"/>
      <point x="296" y="316" type="line"/>
    </contour>
    <contour>
      <point x="204" y="379" type="line"/>
      <point x="212" y="396" type="line"/>
      <point x="106" y="480" type="line"/>
      <point x="99" y="463" type="line"/>
    </contour>
    <contour>
      <point x="228" y="333" type="line"/>
      <point x="268" y="333" type="line"/>
      <point x="268" y="353" type="line"/>
      <point x="228" y="353" type="line"/>
    </contour>
    <contour>
      <point x="292" y="318" type="line"/>
      <point x="309" y="325" type="line"/>
      <point x="263" y="347" type="line"/>
      <point x="243" y="339" type="line"/>
    </contour>
    <contour>
      <point x="196" y="361" type="line"/>
      <point x="216" y="361" type="line"/>
      <point x="216" y="392" type="line"/>
      <point x="196" y="392" type="line"/>
    </contour>
    <contour>
      <point x="466" y="124" type="line"/>
      <point x="486" y="124" type="line"/>
      <point x="486" y="251" type="line"/>
      <point x="466" y="251" type="line"/>
    </contour>
    <contour>
      <point x="22" y="462" type="line"/>
      <point x="142" y="535" type="line"/>
      <point x="129" y="550" type="line"/>
      <point x="10" y="478" type="line"/>
    </contour>
    <contour>
      <point x="393" y="239" type="line"/>
      <point x="476" y="234" type="line"/>
      <point x="476" y="252" type="line"/>
      <point x="393" y="258" type="line"/>
    </contour>
    <contour>
      <point x="475" y="235" type="line"/>
      <point x="486" y="251" type="line"/>
      <point x="308" y="331" type="line"/>
      <point x="301" y="313" type="line"/>
    </contour>
    <contour>
      <point x="101" y="463" type="line"/>
      <point x="183" y="512" type="line"/>
      <point x="172" y="527" type="line"/>
      <point x="90" y="478" type="line"/>
    </contour>
    <contour>
      <point x="268" y="333" type="line"/>
      <point x="300" y="361" type="line"/>
      <point x="288" y="376" type="line"/>
      <point x="255" y="348" type="line"/>
    </contour>
    <contour>
      <point x="209" y="379" type="line"/>
      <point x="241" y="412" type="line"/>
      <point x="228" y="425" type="line"/>
      <point x="196" y="391" type="line"/>
    </contour>
    <contour>
      <point x="308" y="311" type="line"/>
      <point x="406" y="397" type="line"/>
      <point x="391" y="410" type="line"/>
      <point x="296" y="326" type="line"/>
    </contour>
    <contour>
      <point x="226" y="410" type="line"/>
      <point x="240" y="419" type="line"/>
      <point x="179" y="524" type="line"/>
      <point x="164" y="514" type="line"/>
    </contour>
    <contour>
      <point x="280" y="361" type="line"/>
      <point x="300" y="361" type="line"/>
      <point x="300" y="392" type="line"/>
      <point x="280" y="392" type="line"/>
    </contour>
    <contour>
      <point x="228" y="404" type="line"/>
      <point x="268" y="404" type="line"/>
      <point x="268" y="425" type="line"/>
      <point x="228" y="425" type="line"/>
    </contour>
    <contour>
      <point x="168" y="510" type="line"/>
      <point x="184" y="520" type="line"/>
      <point x="139" y="545" type="line"/>
      <point x="123" y="536" type="line"/>
    </contour>
    <contour>
      <point x="287" y="379" type="line"/>
      <point x="300" y="391" type="line"/>
      <point x="268" y="425" type="line"/>
      <point x="255" y="412" type="line"/>
    </contour>
    <contour>
      <point x="390" y="395" type="line"/>
      <point x="390" y="414" type="line"/>
      <point x="290" y="374" type="line"/>
      <point x="289" y="354" type="line"/>
    </contour>
    <contour>
      <point x="172" y="507" type="line"/>
      <point x="324" y="507" type="line"/>
      <point x="324" y="527" type="line"/>
      <point x="172" y="527" type="line"/>
    </contour>
    <contour>
      <point x="270" y="410" type="line"/>
      <point x="332" y="514" type="line"/>
      <point x="317" y="524" type="line"/>
      <point x="256" y="419" type="line"/>
    </contour>
    <contour>
      <point x="292" y="379" type="line"/>
      <point x="397" y="463" type="line"/>
      <point x="390" y="480" type="line"/>
      <point x="284" y="396" type="line"/>
    </contour>
    <contour>
      <point x="476" y="350" type="line"/>
      <point x="476" y="370" type="line"/>
      <point x="393" y="416" type="line"/>
      <point x="393" y="395" type="line"/>
    </contour>
    <contour>
      <point x="386" y="397" type="line"/>
      <point x="406" y="397" type="line"/>
      <point x="406" y="478" type="line"/>
      <point x="386" y="478" type="line"/>
    </contour>
    <contour>
      <point x="129" y="530" type="line"/>
      <point x="367" y="530" type="line"/>
      <point x="367" y="550" type="line"/>
      <point x="129" y="550" type="line"/>
    </contour>
    <contour>
      <point x="395" y="463" type="line"/>
      <point x="406" y="478" type="line"/>
      <point x="324" y="527" type="line"/>
      <point x="313" y="512" type="line"/>
    </contour>
    <contour>
      <point x="328" y="510" type="line"/>
      <point x="373" y="536" type="line"/>
      <point x="357" y="545" type="line"/>
      <point x="312" y="520" type="line"/>
    </contour>
    <contour>
      <point x="466" y="351" type="line"/>
      <point x="486" y="351" type="line"/>
      <point x="486" y="478" type="line"/>
      <point x="466" y="478" type="line"/>
    </contour>
    <contour>
      <point x="401" y="464" type="line"/>
      <point x="477" y="461" type="line"/>
      <point x="470" y="479" type="line"/>
      <point x="393" y="482" type="line"/>
    </contour>
    <contour>
      <point x="474" y="462" type="line"/>
      <point x="486" y="478" type="line"/>
      <point x="367" y="550" type="line"/>
      <point x="354" y="535" type="line"/>
    </contour>
  </outline>
</glyph>
<glyph name="colon" format="2">
  <advance width="195"/>
  <unicode hex="003A"/>
  <outline>
    <contour>
      <point x="15" y="144" type="line"/>
      <point x="180" y="144" type="line"/>
      <point x="180" y="162" type="line"/>
      <point x="15" y="162" type="line"/>
    </contour>
    <contour>
      <point x="29" y="144" type="line"/>
      <point x="100" y="266" type="line"/>
      <point x="91" y="286" type="line"/>
      <point x="15" y="158" type="line"/>
    </contour>
    <contour>
      <point x="166" y="144" type="line"/>
      <point x="180" y="158" type="line"/>
      <point x="103" y="287" type="line"/>
      <point x="94" y="267" type="line"/>
    </contour>
    <contour>
      <point x="15" y="144" type="line"/>
      <point x="35" y="144" type="line"/>
      <point x="35" y="319" type="line"/>
      <point x="15" y="319" type="line"/>
    </contour>
    <contour>
      <point x="91" y="271" type="line"/>
      <point x="104" y="271" type="line"/>
      <point x="104" y="288" type="line"/>
      <point x="91" y="288" type="line"/>
    </contour>
    <contour>
      <point x="160" y="144" type="line"/>
      <point x="180" y="144" type="line"/>
      <point x="180" y="319" type="line"/>
      <point x="160" y="319" type="line"/>
    </contour>
    <contour>
      <point x="92" y="273" type="line"/>
      <point x="101" y="293" type="line"/>
      <point x="29" y="319" type="line"/>
      <point x="15" y="305" type="line"/>
    </contour>
    <contour>
      <point x="18" y="301" type="line"/>
      <point x="180" y="301" type="line"/>
      <point x="180" y="319" type="line"/>
      <point x="18" y="319" type="line"/>
    </contour>
    <contour>
      <point x="103" y="273" type="line"/>
      <point x="179" y="305" type="line"/>
      <point x="165" y="319" type="line"/>
      <point x="94" y="293" type="line"/>
    </contour>
    <contour>
      <point x="15" y="324" type="line"/>
      <point x="180" y="324" type="line"/>
      <point x="180" y="342" type="line"/>
      <point x="15" y="342" type="line"/>
    </contour>
    <contour>
      <point x="29" y="324" type="line"/>
      <point x="100" y="446" type="line"/>
      <point x="91" y="466" type="line"/>
      <point x="15" y="338" type="line"/>
    </contour>
    <contour>
      <point x="166" y="324" type="line"/>
      <point x="180" y="338" type="line"/>
      <point x="103" y="467" type="line"/>
      <point x="94" y="447" type="line"/>
    </contour>
    <contour>
      <point x="15" y="324" type="line"/>
      <point x="35" y="324" type="line"/>
      <point x="35" y="499" type="line"/>
      <point x="15" y="499" type="line"/>
    </contour>
    <contour>
      <point x="91" y="451" type="line"/>
      <point x="104" y="451" type="line"/>
      <point x="104" y="468" type="line"/>
      <point x="91" y="468" type="line"/>
    </contour>
    <contour>
      <point x="160" y="324" type="line"/>
      <point x="180" y="324" type="line"/>
      <point x="180" y="499" type="line"/>
      <point x="160" y="499" type="line"/>
    </contour>
    <contour>
      <point x="92" y="453" type="line"/>
      <point x="101" y="473" type="line"/>
      <point x="29" y="499" type="line"/>
      <point x="15" y="485" type="line"/>
    </contour>
    <contour>
      <point x="18" y="481" type="line"/>
      <point x="180" y="481" type="line"/>
      <point x="180" y="499" type="line"/>
      <point x="18" y="499" type="line"/>
    </contour>
    <contour>
      <point x="103" y="453" type="line"/>
      <point x="179" y="485" type="line"/>
      <point x="165" y="499" type="line"/>
      <point x="94" y="473" type="line"/>
    </contour>
  </outline>
</glyph>
<glyph name="A" format="2">
  <advance width="589"/>
  <unicode hex="0041"/>
  <anchor x="287" y="50" name="bottom"/>
  <anchor x="560" y="68" name="ogonek"/>
  <anchor x="287" y="550" name="top"/>
  <outline>
    <contour>
      <point x="567" y="50" type="line"/>
      <point x="587" y="50" type="line"/>
      <point x="418" y="550" type="line"/>
      <point x="399" y="545" type="line"/>
    </contour>
    <contour>
      <point x="23" y="51" type="line"/>
      <point x="112" y="160" type="line"/>
      <point x="97" y="173" type="line"/>
      <point x="9" y="65" type="line"/>
    </contour>
    <contour>
      <point x="8" y="50" type="line"/>
      <point x="191" y="50" type="line"/>
      <point x="191" y="70" type="line"/>
      <point x="8" y="70" type="line"/>
    </contour>
    <contour>
      <point x="180" y="51" type="line"/>
      <point x="194" y="65" type="line"/>
      <point x="117" y="173" type="line"/>
      <point x="102" y="160" type="line"/>
    </contour>
    <contour>
      <point x="191" y="50" type="line"/>
      <point x="215" y="151" type="line"/>
      <point x="196" y="156" type="line"/>
      <point x="172" y="55" type="line"/>
    </contour>
    <contour>
      <point x="200" y="140" type="line"/>
      <point x="214" y="154" type="line"/>
      <point x="146" y="268" type="line"/>
      <point x="131" y="255" type="line"/>
    </contour>
    <contour>
      <point x="203" y="140" type="line"/>
      <point x="329" y="140" type="line"/>
      <point x="329" y="160" type="line"/>
      <point x="203" y="160" type="line"/>
    </contour>
    <contour>
      <point x="146" y="258" type="line"/>
      <point x="251" y="282" type="line"/>
      <point x="242" y="300" type="line"/>
      <point x="137" y="276" type="line"/>
    </contour>
    <contour>
      <point x="2" y="50" type="line"/>
      <point x="22" y="50" type="line"/>
      <point x="190" y="545" type="line"/>
      <point x="171" y="550" type="line"/>
    </contour>
    <contour>
      <point x="336" y="50" type="line"/>
      <point x="355" y="55" type="line"/>
      <point x="331" y="156" type="line"/>
      <point x="312" y="151" type="line"/>
    </contour>
    <contour>
      <point x="139" y="254" type="line"/>
      <point x="411" y="254" type="line"/>
      <point x="411" y="274" type="line"/>
      <point x="139" y="274" type="line"/>
    </contour>
    <contour>
      <point x="113" y="160" type="line"/>
      <point x="225" y="515" type="line"/>
      <point x="206" y="520" type="line"/>
      <point x="94" y="165" type="line"/>
    </contour>
    <contour>
      <point x="348" y="51" type="line"/>
      <point x="439" y="189" type="line"/>
      <point x="423" y="202" type="line"/>
      <point x="334" y="65" type="line"/>
    </contour>
    <contour>
      <point x="336" y="50" type="line"/>
      <point x="577" y="50" type="line"/>
      <point x="577" y="70" type="line"/>
      <point x="336" y="70" type="line"/>
    </contour>
    <contour>
      <point x="242" y="280" type="line"/>
      <point x="293" y="280" type="line"/>
      <point x="293" y="298" type="line"/>
      <point x="242" y="298" type="line"/>
    </contour>
    <contour>
      <point x="326" y="137" type="line"/>
      <point x="418" y="258" type="line"/>
      <point x="402" y="271" type="line"/>
      <point x="312" y="151" type="line"/>
    </contour>
    <contour>
      <point x="249" y="280" type="line"/>
      <point x="277" y="363" type="line"/>
      <point x="258" y="368" type="line"/>
      <point x="230" y="286" type="line"/>
    </contour>
    <contour>
      <point x="282" y="281" type="line"/>
      <point x="301" y="287" type="line"/>
      <point x="275" y="363" type="line"/>
      <point x="256" y="358" type="line"/>
    </contour>
    <contour>
      <point x="409" y="255" type="line"/>
      <point x="414" y="275" type="line"/>
      <point x="293" y="300" type="line"/>
      <point x="284" y="282" type="line"/>
    </contour>
    <contour>
      <point x="568" y="52" type="line"/>
      <point x="580" y="68" type="line"/>
      <point x="434" y="214" type="line"/>
      <point x="421" y="198" type="line"/>
    </contour>
    <contour>
      <point x="257" y="352" type="line"/>
      <point x="276" y="358" type="line"/>
      <point x="225" y="511" type="line"/>
      <point x="206" y="506" type="line"/>
    </contour>
    <contour>
      <point x="427" y="184" type="line"/>
      <point x="446" y="189" type="line"/>
      <point x="336" y="520" type="line"/>
      <point x="317" y="515" type="line"/>
    </contour>
    <contour>
      <point x="210" y="503" type="line"/>
      <point x="227" y="513" type="line"/>
      <point x="187" y="547" type="line"/>
      <point x="169" y="538" type="line"/>
    </contour>
    <contour>
      <point x="275" y="355" type="line"/>
      <point x="332" y="508" type="line"/>
      <point x="313" y="513" type="line"/>
      <point x="256" y="361" type="line"/>
    </contour>
    <contour>
      <point x="206" y="500" type="line"/>
      <point x="336" y="500" type="line"/>
      <point x="336" y="520" type="line"/>
      <point x="206" y="520" type="line"/>
    </contour>
    <contour>
      <point x="171" y="530" type="line"/>
      <point x="418" y="530" type="line"/>
      <point x="418" y="550" type="line"/>
      <point x="171" y="550" type="line"/>
    </contour>
    <contour>
      <point x="330" y="501" type="line"/>
      <point x="418" y="531" type="line"/>
      <point x="405" y="546" type="line"/>
      <point x="318" y="517" type="line"/>
    </contour>
  </outline>
</glyph>
<glyph name="C" format="2">
  <advance width="508"/>
  <unicode hex="0043"/>
  <anchor x="258" y="50" name="bottom"/>
  <anchor x="258" y="550" name="top"/>
  <outline>
    <contour>
      <point x="375" y="50" type="line"/>
      <point x="501" y="190" type="line"/>
      <point x="485" y="204" type="line"/>
      <point x="356" y="61" type="line"/>
    </contour>
    <contour>
      <point x="160" y="50" type="line"/>
      <point x="175" y="62" type="line"/>
      <point x="20" y="206" type="line"/>
      <point x="5" y="193" type="line"/>
    </contour>
    <contour>
      <point x="22" y="192" type="line"/>
      <point x="110" y="259" type="line"/>
      <point x="101" y="277" type="line"/>
      <point x="16" y="210" type="line"/>
    </contour>
    <contour>
      <point x="160" y="50" type="line"/>
      <point x="375" y="50" type="line"/>
      <point x="373" y="68" type="line"/>
      <point x="160" y="68" type="line"/>
    </contour>
    <contour>
      <point x="176" y="55" type="line"/>
      <point x="219" y="202" type="line"/>
      <point x="203" y="209" type="line"/>
      <point x="160" y="62" type="line"/>
    </contour>
    <contour>
      <point x="5" y="193" type="line"/>
      <point x="26" y="193" type="line"/>
      <point x="26" y="412" type="line"/>
      <point x="5" y="412" type="line"/>
    </contour>
    <contour>
      <point x="209" y="188" type="line"/>
      <point x="224" y="201" type="line"/>
      <point x="105" y="272" type="line"/>
      <point x="90" y="259" type="line"/>
    </contour>
    <contour>
      <point x="105" y="258" type="line"/>
      <point x="234" y="243" type="line"/>
      <point x="228" y="257" type="line"/>
      <point x="99" y="273" type="line"/>
    </contour>
    <contour>
      <point x="206" y="190" type="line"/>
      <point x="329" y="190" type="line"/>
      <point x="329" y="207" type="line"/>
      <point x="206" y="207" type="line"/>
    </contour>
    <contour>
      <point x="220" y="198" type="line"/>
      <point x="265" y="224" type="line"/>
      <point x="251" y="233" type="line"/>
      <point x="206" y="207" type="line"/>
    </contour>
    <contour>
      <point x="90" y="259" type="line"/>
      <point x="112" y="259" type="line"/>
      <point x="112" y="419" type="line"/>
      <point x="90" y="419" type="line"/>
    </contour>
    <contour>
      <point x="362" y="57" type="line"/>
      <point x="381" y="66" type="line"/>
      <point x="333" y="207" type="line"/>
      <point x="315" y="203" type="line"/>
    </contour>
    <contour>
      <point x="246" y="220" type="line"/>
      <point x="261" y="233" type="line"/>
      <point x="227" y="260" type="line"/>
      <point x="211" y="248" type="line"/>
    </contour>
    <contour>
      <point x="245" y="217" type="line"/>
      <point x="301" y="217" type="line"/>
      <point x="301" y="234" type="line"/>
      <point x="245" y="234" type="line"/>
    </contour>
    <contour>
      <point x="97" y="409" type="line"/>
      <point x="103" y="422" type="line"/>
      <point x="23" y="412" type="line"/>
      <point x="17" y="399" type="line"/>
    </contour>
    <contour>
      <point x="319" y="196" type="line"/>
      <point x="335" y="206" type="line"/>
      <point x="301" y="230" type="line"/>
      <point x="285" y="220" type="line"/>
    </contour>
    <contour>
      <point x="213" y="248" type="line"/>
      <point x="234" y="248" type="line"/>
      <point x="234" y="360" type="line"/>
      <point x="213" y="360" type="line"/>
    </contour>
    <contour>
      <point x="329" y="190" type="line"/>
      <point x="416" y="255" type="line"/>
      <point x="403" y="266" type="line"/>
      <point x="314" y="200" type="line"/>
    </contour>
    <contour>
      <point x="300" y="219" type="line"/>
      <point x="345" y="249" type="line"/>
      <point x="331" y="261" type="line"/>
      <point x="285" y="229" type="line"/>
    </contour>
    <contour>
      <point x="225" y="349" type="line"/>
      <point x="232" y="363" type="line"/>
      <point x="103" y="422" type="line"/>
      <point x="97" y="408" type="line"/>
    </contour>
    <contour>
      <point x="322" y="248" type="line"/>
      <point x="344" y="248" type="line"/>
      <point x="344" y="299" type="line"/>
      <point x="322" y="299" type="line"/>
    </contour>
    <contour>
      <point x="20" y="399" type="line"/>
      <point x="166" y="538" type="line"/>
      <point x="151" y="550" type="line"/>
      <point x="5" y="412" type="line"/>
    </contour>
    <contour>
      <point x="322" y="283" type="line"/>
      <point x="501" y="283" type="line"/>
      <point x="501" y="301" type="line"/>
      <point x="322" y="301" type="line"/>
    </contour>
    <contour>
      <point x="106" y="409" type="line"/>
      <point x="204" y="500" type="line"/>
      <point x="191" y="512" type="line"/>
      <point x="91" y="421" type="line"/>
    </contour>
    <contour>
      <point x="393" y="245" type="line"/>
      <point x="411" y="259" type="line"/>
      <point x="330" y="259" type="line"/>
      <point x="321" y="244" type="line"/>
    </contour>
    <contour>
      <point x="411" y="252" type="line"/>
      <point x="423" y="265" type="line"/>
      <point x="335" y="294" type="line"/>
      <point x="323" y="283" type="line"/>
    </contour>
    <contour>
      <point x="416" y="255" type="line"/>
      <point x="492" y="281" type="line"/>
      <point x="478" y="292" type="line"/>
      <point x="402" y="268" type="line"/>
    </contour>
    <contour>
      <point x="485" y="186" type="line"/>
      <point x="492" y="203" type="line"/>
      <point x="413" y="269" type="line"/>
      <point x="405" y="254" type="line"/>
    </contour>
    <contour>
      <point x="228" y="348" type="line"/>
      <point x="268" y="376" type="line"/>
      <point x="253" y="387" type="line"/>
      <point x="213" y="360" type="line"/>
    </contour>
    <contour>
      <point x="480" y="192" type="line"/>
      <point x="501" y="190" type="line"/>
      <point x="501" y="299" type="line"/>
      <point x="480" y="299" type="line"/>
    </contour>
    <contour>
      <point x="251" y="373" type="line"/>
      <point x="266" y="382" type="line"/>
      <point x="200" y="514" type="line"/>
      <point x="183" y="504" type="line"/>
    </contour>
    <contour>
      <point x="321" y="323" type="line"/>
      <point x="340" y="323" type="line"/>
      <point x="339" y="369" type="line"/>
      <point x="321" y="368" type="line"/>
    </contour>
    <contour>
      <point x="253" y="369" type="line"/>
      <point x="296" y="369" type="line"/>
      <point x="296" y="387" type="line"/>
      <point x="253" y="387" type="line"/>
    </contour>
    <contour>
      <point x="190" y="497" type="line"/>
      <point x="205" y="508" type="line"/>
      <point x="163" y="545" type="line"/>
      <point x="144" y="540" type="line"/>
    </contour>
    <contour>
      <point x="325" y="351" type="line"/>
      <point x="337" y="366" type="line"/>
      <point x="296" y="387" type="line"/>
      <point x="283" y="372" type="line"/>
    </contour>
    <contour>
      <point x="322" y="323" type="line"/>
      <point x="502" y="323" type="line"/>
      <point x="502" y="341" type="line"/>
      <point x="322" y="341" type="line"/>
    </contour>
    <contour>
      <point x="345" y="329" type="line"/>
      <point x="409" y="418" type="line"/>
      <point x="398" y="426" type="line"/>
      <point x="328" y="337" type="line"/>
    </contour>
    <contour>
      <point x="189" y="498" type="line"/>
      <point x="335" y="498" type="line"/>
      <point x="335" y="514" type="line"/>
      <point x="189" y="514" type="line"/>
    </contour>
    <contour>
      <point x="301" y="376" type="line"/>
      <point x="340" y="499" type="line"/>
      <point x="324" y="508" type="line"/>
      <point x="281" y="375" type="line"/>
    </contour>
    <contour>
      <point x="331" y="359" type="line"/>
      <point x="408" y="424" type="line"/>
      <point x="402" y="437" type="line"/>
      <point x="321" y="370" type="line"/>
    </contour>
    <contour>
      <point x="151" y="531" type="line"/>
      <point x="365" y="531" type="line"/>
      <point x="365" y="550" type="line"/>
      <point x="151" y="550" type="line"/>
    </contour>
    <contour>
      <point x="482" y="329" type="line"/>
      <point x="497" y="337" type="line"/>
      <point x="408" y="436" type="line"/>
      <point x="394" y="427" type="line"/>
    </contour>
    <contour>
      <point x="398" y="423" type="line"/>
      <point x="408" y="436" type="line"/>
      <point x="337" y="512" type="line"/>
      <point x="328" y="496" type="line"/>
    </contour>
    <contour>
      <point x="338" y="496" type="line"/>
      <point x="376" y="539" type="line"/>
      <point x="358" y="545" type="line"/>
      <point x="320" y="504" type="line"/>
    </contour>
    <contour>
      <point x="406" y="417" type="line"/>
      <point x="483" y="404" type="line"/>
      <point x="476" y="422" type="line"/>
      <point x="404" y="437" type="line"/>
    </contour>
    <contour>
      <point x="481" y="324" type="line"/>
      <point x="503" y="324" type="line"/>
      <point x="503" y="412" type="line"/>
      <point x="481" y="412" type="line"/>
    </contour>
    <contour>
      <point x="488" y="399" type="line"/>
      <point x="503" y="412" type="line"/>
      <point x="365" y="550" type="line"/>
      <point x="349" y="537" type="line"/>
    </contour>
  </outline>
</glyph>
<glyph name="D" format="2">
  <advance width="580"/>
  <unicode hex="0044"/>
  <anchor x="263" y="50" name="bottom"/>
  <anchor x="263" y="300" name="center"/>
  <anchor x="263" y="550" name="top"/>
  <outline>
    <contour>
      <point x="229" y="379" type="line"/>
      <point x="242" y="394" type="line"/>
      <point x="126" y="504" type="line"/>
      <point x="116" y="488" type="line"/>
    </contour>
    <contour>
      <point x="32" y="57" type="line"/>
      <point x="131" y="208" type="line"/>
      <point x="106" y="209" type="line"/>
      <point x="13" y="64" type="line"/>
    </contour>
    <contour>
      <point x="28" y="50" type="line"/>
      <point x="409" y="50" type="line"/>
      <point x="414" y="70" type="line"/>
      <point x="28" y="70" type="line"/>
    </contour>
    <contour>
      <point x="10" y="50" type="line"/>
      <point x="30" y="50" type="line"/>
      <point x="30" y="550" type="line"/>
      <point x="10" y="550" type="line"/>
    </contour>
    <contour>
      <point x="134" y="206" type="line"/>
      <point x="256" y="221" type="line"/>
      <point x="228" y="235" type="line"/>
      <point x="108" y="215" type="line"/>
    </contour>
    <contour>
      <point x="122" y="195" type="line"/>
      <point x="365" y="195" type="line"/>
      <point x="365" y="213" type="line"/>
      <point x="122" y="213" type="line"/>
    </contour>
    <contour>
      <point x="104" y="195" type="line"/>
      <point x="124" y="195" type="line"/>
      <point x="124" y="508" type="line"/>
      <point x="104" y="508" type="line"/>
    </contour>
    <contour>
      <point x="227" y="218" type="line"/>
      <point x="316" y="218" type="line"/>
      <point x="316" y="236" type="line"/>
      <point x="227" y="236" type="line"/>
    </contour>
    <contour>
      <point x="396" y="59" type="line"/>
      <point x="416" y="66" type="line"/>
      <point x="372" y="209" type="line"/>
      <point x="357" y="200" type="line"/>
    </contour>
    <contour>
      <point x="357" y="198" type="line"/>
      <point x="373" y="208" type="line"/>
      <point x="315" y="233" type="line"/>
      <point x="294" y="223" type="line"/>
    </contour>
    <contour>
      <point x="314" y="220" type="line"/>
      <point x="352" y="261" type="line"/>
      <point x="337" y="273" type="line"/>
      <point x="299" y="232" type="line"/>
    </contour>
    <contour>
      <point x="227" y="226" type="line"/>
      <point x="247" y="226" type="line"/>
      <point x="247" y="382" type="line"/>
      <point x="227" y="382" type="line"/>
    </contour>
    <contour>
      <point x="368" y="194" type="line"/>
      <point x="456" y="264" type="line"/>
      <point x="438" y="273" type="line"/>
      <point x="356" y="209" type="line"/>
    </contour>
    <contour>
      <point x="409" y="50" type="line"/>
      <point x="575" y="196" type="line"/>
      <point x="554" y="205" type="line"/>
      <point x="394" y="64" type="line"/>
    </contour>
    <contour>
      <point x="439" y="259" type="line"/>
      <point x="450" y="277" type="line"/>
      <point x="339" y="275" type="line"/>
      <point x="335" y="258" type="line"/>
    </contour>
    <contour>
      <point x="335" y="258" type="line"/>
      <point x="355" y="260" type="line"/>
      <point x="355" y="355" type="line"/>
      <point x="335" y="355" type="line"/>
    </contour>
    <contour>
      <point x="557" y="193" type="line"/>
      <point x="568" y="208" type="line"/>
      <point x="451" y="277" type="line"/>
      <point x="445" y="259" type="line"/>
    </contour>
    <contour>
      <point x="227" y="380" type="line"/>
      <point x="306" y="380" type="line"/>
      <point x="306" y="398" type="line"/>
      <point x="227" y="398" type="line"/>
    </contour>
    <contour>
      <point x="342" y="341" type="line"/>
      <point x="356" y="356" type="line"/>
      <point x="306" y="398" type="line"/>
      <point x="294" y="383" type="line"/>
    </contour>
    <contour>
      <point x="107" y="490" type="line"/>
      <point x="359" y="490" type="line"/>
      <point x="359" y="508" type="line"/>
      <point x="107" y="508" type="line"/>
    </contour>
    <contour>
      <point x="436" y="264" type="line"/>
      <point x="456" y="264" type="line"/>
      <point x="456" y="414" type="line"/>
      <point x="436" y="414" type="line"/>
    </contour>
    <contour>
      <point x="306" y="380" type="line"/>
      <point x="363" y="498" type="line"/>
      <point x="346" y="506" type="line"/>
      <point x="290" y="387" type="line"/>
    </contour>
    <contour>
      <point x="26" y="530" type="line"/>
      <point x="416" y="530" type="line"/>
      <point x="420" y="550" type="line"/>
      <point x="26" y="550" type="line"/>
    </contour>
    <contour>
      <point x="341" y="339" type="line"/>
      <point x="453" y="408" type="line"/>
      <point x="441" y="422" type="line"/>
      <point x="336" y="356" type="line"/>
    </contour>
    <contour>
      <point x="444" y="398" type="line"/>
      <point x="456" y="414" type="line"/>
      <point x="355" y="506" type="line"/>
      <point x="342" y="492" type="line"/>
    </contour>
    <contour>
      <point x="575" y="196" type="line"/>
      <point x="575" y="419" type="line"/>
      <point x="555" y="419" type="line"/>
      <point x="555" y="200" type="line"/>
    </contour>
    <contour>
      <point x="357" y="493" type="line"/>
      <point x="417" y="530" type="line"/>
      <point x="399" y="536" type="line"/>
      <point x="343" y="505" type="line"/>
    </contour>
    <contour>
      <point x="450" y="406" type="line"/>
      <point x="565" y="405" type="line"/>
      <point x="559" y="422" type="line"/>
      <point x="440" y="423" type="line"/>
    </contour>
    <contour>
      <point x="557" y="410" type="line"/>
      <point x="575" y="419" type="line"/>
      <point x="419" y="550" type="line"/>
      <point x="408" y="536" type="line"/>
    </contour>
    <contour>
      <point x="112" y="490" type="line"/>
      <point x="124" y="505" type="line"/>
      <point x="26" y="541" type="line"/>
      <point x="17" y="525" type="line"/>
    </contour>
  </outline>
</glyph>
<glyph name="E" format="2">
  <advance width="475"/>
  <unicode hex="0045"/>
  <anchor x="240" y="50" name="bottom"/>
  <anchor x="428" y="50" name="ogonek"/>
  <anchor x="240" y="550" name="top"/>
  <anchor x="25" y="550" name="topleft"/>
  <outline>
    <contour>
      <point x="23" y="50" type="line"/>
      <point x="135" y="212" type="line"/>
      <point x="122" y="225" type="line"/>
      <point x="10" y="63" type="line"/>
    </contour>
    <contour>
      <point x="10" y="50" type="line"/>
      <point x="30" y="50" type="line"/>
      <point x="30" y="550" type="line"/>
      <point x="10" y="550" type="line"/>
    </contour>
    <contour>
      <point x="120" y="220" type="line"/>
      <point x="140" y="220" type="line"/>
      <point x="140" y="501" type="line"/>
      <point x="120" y="501" type="line"/>
    </contour>
    <contour>
      <point x="240" y="253" type="line"/>
      <point x="253" y="267" type="line"/>
      <point x="140" y="376" type="line"/>
      <point x="125" y="363" type="line"/>
    </contour>
    <contour>
      <point x="232" y="255" type="line"/>
      <point x="370" y="255" type="line"/>
      <point x="370" y="275" type="line"/>
      <point x="232" y="275" type="line"/>
    </contour>
    <contour>
      <point x="138" y="370" type="line"/>
      <point x="249" y="380" type="line"/>
      <point x="240" y="395" type="line"/>
      <point x="125" y="385" type="line"/>
    </contour>
    <contour>
      <point x="122" y="482" type="line"/>
      <point x="135" y="499" type="line"/>
      <point x="28" y="546" type="line"/>
      <point x="15" y="529" type="line"/>
    </contour>
    <contour>
      <point x="140" y="355" type="line"/>
      <point x="268" y="355" type="line"/>
      <point x="268" y="374" type="line"/>
      <point x="140" y="374" type="line"/>
    </contour>
    <contour>
      <point x="240" y="378" type="line"/>
      <point x="370" y="378" type="line"/>
      <point x="370" y="398" type="line"/>
      <point x="240" y="398" type="line"/>
    </contour>
    <contour>
      <point x="360" y="255" type="line"/>
      <point x="373" y="267" type="line"/>
      <point x="267" y="371" type="line"/>
      <point x="244" y="366" type="line"/>
    </contour>
    <contour>
      <point x="257" y="357" type="line"/>
      <point x="373" y="377" type="line"/>
      <point x="373" y="392" type="line"/>
      <point x="247" y="371" type="line"/>
    </contour>
    <contour>
      <point x="360" y="255" type="line"/>
      <point x="380" y="255" type="line"/>
      <point x="380" y="398" type="line"/>
      <point x="360" y="398" type="line"/>
    </contour>
    <contour>
      <point x="230" y="231" type="line"/>
      <point x="250" y="231" type="line"/>
      <point x="250" y="275" type="line"/>
      <point x="230" y="275" type="line"/>
    </contour>
    <contour>
      <point x="20" y="50" type="line"/>
      <point x="460" y="50" type="line"/>
      <point x="460" y="70" type="line"/>
      <point x="20" y="70" type="line"/>
    </contour>
    <contour>
      <point x="140" y="216" type="line"/>
      <point x="248" y="233" type="line"/>
      <point x="236" y="246" type="line"/>
      <point x="126" y="229" type="line"/>
    </contour>
    <contour>
      <point x="126" y="204" type="line"/>
      <point x="354" y="204" type="line"/>
      <point x="354" y="224" type="line"/>
      <point x="126" y="224" type="line"/>
    </contour>
    <contour>
      <point x="231" y="231" type="line"/>
      <point x="460" y="231" type="line"/>
      <point x="460" y="246" type="line"/>
      <point x="231" y="246" type="line"/>
    </contour>
    <contour>
      <point x="450" y="60" type="line"/>
      <point x="463" y="72" type="line"/>
      <point x="347" y="225" type="line"/>
      <point x="332" y="214" type="line"/>
    </contour>
    <contour>
      <point x="347" y="208" type="line"/>
      <point x="463" y="228" type="line"/>
      <point x="450" y="243" type="line"/>
      <point x="330" y="222" type="line"/>
    </contour>
    <contour>
      <point x="450" y="50" type="line"/>
      <point x="470" y="50" type="line"/>
      <point x="470" y="246" type="line"/>
      <point x="450" y="246" type="line"/>
    </contour>
    <contour>
      <point x="20" y="550" type="line"/>
      <point x="20" y="530" type="line"/>
      <point x="460" y="530" type="line"/>
      <point x="460" y="550" type="line"/>
    </contour>
    <contour>
      <point x="141" y="495" type="line"/>
      <point x="126" y="484" type="line"/>
      <point x="232" y="382" type="line"/>
      <point x="245" y="397" type="line"/>
    </contour>
    <contour>
      <point x="122" y="503" type="line"/>
      <point x="122" y="483" type="line"/>
      <point x="350" y="483" type="line"/>
      <point x="350" y="503" type="line"/>
    </contour>
    <contour>
      <point x="232" y="398" type="line"/>
      <point x="232" y="378" type="line"/>
      <point x="460" y="378" type="line"/>
      <point x="460" y="398" type="line"/>
    </contour>
    <contour>
      <point x="446" y="541" type="line"/>
      <point x="329" y="500" type="line"/>
      <point x="344" y="486" type="line"/>
      <point x="463" y="528" type="line"/>
    </contour>
    <contour>
      <point x="346" y="500" type="line"/>
      <point x="328" y="491" type="line"/>
      <point x="450" y="385" type="line"/>
      <point x="463" y="400" type="line"/>
    </contour>
    <contour>
      <point x="450" y="550" type="line"/>
      <point x="450" y="378" type="line"/>
      <point x="470" y="378" type="line"/>
      <point x="470" y="550" type="line"/>
    </contour>
    <contour>
      <point x="226" y="378" type="line"/>
      <point x="246" y="378" type="line"/>
      <point x="246" y="398" type="line"/>
      <point x="226" y="398" type="line"/>
    </contour>
  </outline>
</glyph>
<glyph name="F" format="2">
  <advance width="475"/>
  <unicode hex="0046"/>
  <anchor x="240" y="50" name="bottom"/>
  <anchor x="240" y="550" name="top"/>
  <outline>
    <contour>
      <point x="26" y="50" type="line"/>
      <point x="138" y="215" type="line"/>
      <point x="122" y="227" type="line"/>
      <point x="10" y="63" type="line"/>
    </contour>
    <contour>
      <point x="10" y="50" type="line"/>
      <point x="30" y="50" type="line"/>
      <point x="30" y="550" type="line"/>
      <point x="10" y="550" type="line"/>
    </contour>
    <contour>
      <point x="120" y="210" type="line"/>
      <point x="140" y="210" type="line"/>
      <point x="140" y="501" type="line"/>
      <point x="120" y="501" type="line"/>
    </contour>
    <contour>
      <point x="236" y="256" type="line"/>
      <point x="249" y="270" type="line"/>
      <point x="139" y="382" type="line"/>
      <point x="124" y="370" type="line"/>
    </contour>
    <contour>
      <point x="230" y="255" type="line"/>
      <point x="370" y="255" type="line"/>
      <point x="370" y="275" type="line"/>
      <point x="230" y="275" type="line"/>
    </contour>
    <contour>
      <point x="133" y="369" type="line"/>
      <point x="249" y="378" type="line"/>
      <point x="244" y="395" type="line"/>
      <point x="122" y="385" type="line"/>
    </contour>
    <contour>
      <point x="122" y="484" type="line"/>
      <point x="135" y="499" type="line"/>
      <point x="23" y="550" type="line"/>
      <point x="10" y="535" type="line"/>
    </contour>
    <contour>
      <point x="140" y="355" type="line"/>
      <point x="268" y="355" type="line"/>
      <point x="268" y="374" type="line"/>
      <point x="140" y="374" type="line"/>
    </contour>
    <contour>
      <point x="230" y="378" type="line"/>
      <point x="370" y="378" type="line"/>
      <point x="370" y="395" type="line"/>
      <point x="230" y="395" type="line"/>
    </contour>
    <contour>
      <point x="360" y="255" type="line"/>
      <point x="373" y="267" type="line"/>
      <point x="269" y="368" type="line"/>
      <point x="251" y="360" type="line"/>
    </contour>
    <contour>
      <point x="257" y="357" type="line"/>
      <point x="374" y="377" type="line"/>
      <point x="371" y="392" type="line"/>
      <point x="247" y="371" type="line"/>
    </contour>
    <contour>
      <point x="360" y="255" type="line"/>
      <point x="380" y="255" type="line"/>
      <point x="380" y="395" type="line"/>
      <point x="360" y="395" type="line"/>
    </contour>
    <contour>
      <point x="230" y="50" type="line"/>
      <point x="250" y="50" type="line"/>
      <point x="250" y="268" type="line"/>
      <point x="230" y="268" type="line"/>
    </contour>
    <contour>
      <point x="20" y="550" type="line"/>
      <point x="20" y="530" type="line"/>
      <point x="460" y="530" type="line"/>
      <point x="460" y="550" type="line"/>
    </contour>
    <contour>
      <point x="141" y="495" type="line"/>
      <point x="126" y="484" type="line"/>
      <point x="235" y="381" type="line"/>
      <point x="248" y="396" type="line"/>
    </contour>
    <contour>
      <point x="122" y="503" type="line"/>
      <point x="122" y="483" type="line"/>
      <point x="350" y="483" type="line"/>
      <point x="350" y="503" type="line"/>
    </contour>
    <contour>
      <point x="230" y="398" type="line"/>
      <point x="230" y="378" type="line"/>
      <point x="460" y="378" type="line"/>
      <point x="460" y="398" type="line"/>
    </contour>
    <contour>
      <point x="446" y="543" type="line"/>
      <point x="329" y="500" type="line"/>
      <point x="344" y="486" type="line"/>
      <point x="463" y="530" type="line"/>
    </contour>
    <contour>
      <point x="347" y="503" type="line"/>
      <point x="329" y="494" type="line"/>
      <point x="450" y="387" type="line"/>
      <point x="463" y="402" type="line"/>
    </contour>
    <contour>
      <point x="450" y="550" type="line"/>
      <point x="450" y="378" type="line"/>
      <point x="470" y="378" type="line"/>
      <point x="470" y="550" type="line"/>
    </contour>
    <contour>
      <point x="230" y="382" type="line"/>
      <point x="250" y="382" type="line"/>
      <point x="250" y="395" type="line"/>
      <point x="230" y="395" type="line"/>
    </contour>
    <contour>
      <point x="10" y="50" type="line"/>
      <point x="250" y="50" type="line"/>
      <point x="250" y="70" type="line"/>
      <point x="10" y="70" type="line"/>
    </contour>
    <contour>
      <point x="234" y="50" type="line"/>
      <point x="250" y="63" type="line"/>
      <point x="137" y="230" type="line"/>
      <point x="122" y="215" type="line"/>
    </contour>
  </outline>
</glyph>
<glyph name="G" format="2">
  <advance width="572"/>
  <unicode hex="0047"/>
  <anchor x="284" y="50" name="bottom"/>
  <anchor x="284" y="550" name="top"/>
  <outline>
    <contour>
      <point x="541" y="412" type="line"/>
      <point x="541" y="319" type="line"/>
      <point x="562" y="319" type="line"/>
      <point x="562" y="412" type="line"/>
    </contour>
    <contour>
      <point x="562" y="319" type="line"/>
      <point x="541" y="319" type="line"/>
    </contour>
    <contour>
      <point x="377" y="535" type="line"/>
      <point x="548" y="397" type="line"/>
      <point x="562" y="412" type="line"/>
      <point x="390" y="550" type="line"/>
    </contour>
    <contour>
      <point x="562" y="412" type="line"/>
      <point x="548" y="397" type="line"/>
    </contour>
    <contour>
      <point x="326" y="319" type="line"/>
      <point x="551" y="319" type="line"/>
      <point x="551" y="339" type="line"/>
      <point x="326" y="339" type="line"/>
    </contour>
    <contour>
      <point x="444" y="414" type="line"/>
      <point x="538" y="327" type="line"/>
      <point x="552" y="341" type="line"/>
      <point x="458" y="428" type="line"/>
    </contour>
    <contour>
      <point x="551" y="417" type="line"/>
      <point x="439" y="431" type="line"/>
      <point x="443" y="411" type="line"/>
      <point x="554" y="397" type="line"/>
    </contour>
    <contour>
      <point x="454" y="430" type="line"/>
      <point x="331" y="337" type="line"/>
      <point x="344" y="322" type="line"/>
      <point x="467" y="415" type="line"/>
    </contour>
    <contour>
      <point x="162" y="50" type="line"/>
      <point x="177" y="64" type="line"/>
      <point x="20" y="199" type="line"/>
      <point x="5" y="185" type="line"/>
    </contour>
    <contour>
      <point x="22" y="179" type="line"/>
      <point x="105" y="267" type="line"/>
      <point x="99" y="288" type="line"/>
      <point x="16" y="200" type="line"/>
    </contour>
    <contour>
      <point x="170" y="57" type="line"/>
      <point x="212" y="201" type="line"/>
      <point x="195" y="211" type="line"/>
      <point x="153" y="67" type="line"/>
    </contour>
    <contour>
      <point x="162" y="50" type="line"/>
      <point x="363" y="50" type="line"/>
      <point x="363" y="70" type="line"/>
      <point x="162" y="70" type="line"/>
    </contour>
    <contour>
      <point x="198" y="189" type="line"/>
      <point x="212" y="203" type="line"/>
      <point x="109" y="285" type="line"/>
      <point x="94" y="271" type="line"/>
    </contour>
    <contour>
      <point x="5" y="185" type="line"/>
      <point x="26" y="185" type="line"/>
      <point x="26" y="416" type="line"/>
      <point x="5" y="416" type="line"/>
    </contour>
    <contour>
      <point x="110" y="268" type="line"/>
      <point x="233" y="239" type="line"/>
      <point x="227" y="257" type="line"/>
      <point x="104" y="286" type="line"/>
    </contour>
    <contour>
      <point x="198" y="189" type="line"/>
      <point x="318" y="189" type="line"/>
      <point x="318" y="208" type="line"/>
      <point x="198" y="208" type="line"/>
    </contour>
    <contour>
      <point x="208" y="196" type="line"/>
      <point x="276" y="225" type="line"/>
      <point x="255" y="231" type="line"/>
      <point x="192" y="207" type="line"/>
    </contour>
    <contour>
      <point x="351" y="60" type="line"/>
      <point x="371" y="67" type="line"/>
      <point x="326" y="201" type="line"/>
      <point x="307" y="204" type="line"/>
    </contour>
    <contour>
      <point x="95" y="271" type="line"/>
      <point x="116" y="271" type="line"/>
      <point x="116" y="426" type="line"/>
      <point x="95" y="426" type="line"/>
    </contour>
    <contour>
      <point x="312" y="193" type="line"/>
      <point x="326" y="205" type="line"/>
      <point x="303" y="234" type="line"/>
      <point x="289" y="222" type="line"/>
    </contour>
    <contour>
      <point x="104" y="413" type="line"/>
      <point x="111" y="431" type="line"/>
      <point x="26" y="420" type="line"/>
      <point x="19" y="402" type="line"/>
    </contour>
    <contour>
      <point x="20" y="402" type="line"/>
      <point x="181" y="536" type="line"/>
      <point x="166" y="550" type="line"/>
      <point x="5" y="416" type="line"/>
    </contour>
    <contour>
      <point x="109" y="413" type="line"/>
      <point x="216" y="504" type="line"/>
      <point x="203" y="517" type="line"/>
      <point x="95" y="426" type="line"/>
    </contour>
    <contour>
      <point x="260" y="377" type="line"/>
      <point x="277" y="389" type="line"/>
      <point x="216" y="512" type="line"/>
      <point x="199" y="500" type="line"/>
    </contour>
    <contour>
      <point x="202" y="503" type="line"/>
      <point x="221" y="510" type="line"/>
      <point x="185" y="542" type="line"/>
      <point x="164" y="535" type="line"/>
    </contour>
    <contour>
      <point x="203" y="498" type="line"/>
      <point x="360" y="498" type="line"/>
      <point x="360" y="517" type="line"/>
      <point x="203" y="517" type="line"/>
    </contour>
    <contour>
      <point x="166" y="532" type="line"/>
      <point x="390" y="532" type="line"/>
      <point x="390" y="550" type="line"/>
      <point x="166" y="550" type="line"/>
    </contour>
    <contour>
      <point x="224" y="343" type="line"/>
      <point x="230" y="359" type="line"/>
      <point x="112" y="430" type="line"/>
      <point x="106" y="414" type="line"/>
    </contour>
    <contour>
      <point x="218" y="247" type="line"/>
      <point x="239" y="247" type="line"/>
      <point x="239" y="357" type="line"/>
      <point x="218" y="357" type="line"/>
    </contour>
    <contour>
      <point x="253" y="217" type="line"/>
      <point x="300" y="217" type="line"/>
      <point x="300" y="235" type="line"/>
      <point x="253" y="235" type="line"/>
    </contour>
    <contour>
      <point x="259" y="374" type="line"/>
      <point x="312" y="374" type="line"/>
      <point x="312" y="392" type="line"/>
      <point x="259" y="392" type="line"/>
    </contour>
    <contour>
      <point x="305" y="218" type="line"/>
      <point x="346" y="241" type="line"/>
      <point x="329" y="254" type="line"/>
      <point x="295" y="232" type="line"/>
    </contour>
    <contour>
      <point x="326" y="243" type="line"/>
      <point x="346" y="241" type="line"/>
      <point x="346" y="309" type="line"/>
      <point x="326" y="309" type="line"/>
    </contour>
    <contour>
      <point x="331" y="349" type="line"/>
      <point x="345" y="363" type="line"/>
      <point x="312" y="392" type="line"/>
      <point x="298" y="378" type="line"/>
    </contour>
    <contour>
      <point x="460" y="408" type="line"/>
      <point x="475" y="413" type="line"/>
      <point x="360" y="517" type="line"/>
      <point x="345" y="502" type="line"/>
    </contour>
    <contour>
      <point x="313" y="375" type="line"/>
      <point x="361" y="499" type="line"/>
      <point x="344" y="511" type="line"/>
      <point x="297" y="387" type="line"/>
    </contour>
    <contour>
      <point x="360" y="501" type="line"/>
      <point x="401" y="531" type="line"/>
      <point x="385" y="543" type="line"/>
      <point x="343" y="512" type="line"/>
    </contour>
    <contour>
      <point x="318" y="189" type="line"/>
      <point x="446" y="256" type="line"/>
      <point x="432" y="270" type="line"/>
      <point x="304" y="203" type="line"/>
    </contour>
    <contour>
      <point x="326" y="322" type="line"/>
      <point x="346" y="322" type="line"/>
      <point x="346" y="361" type="line"/>
      <point x="326" y="361" type="line"/>
    </contour>
    <contour>
      <point x="326" y="288" type="line"/>
      <point x="562" y="288" type="line"/>
      <point x="562" y="309" type="line"/>
      <point x="326" y="309" type="line"/>
    </contour>
    <contour>
      <point x="363" y="50" type="line"/>
      <point x="454" y="139" type="line"/>
      <point x="441" y="154" type="line"/>
      <point x="350" y="65" type="line"/>
    </contour>
    <contour>
      <point x="541" y="298" type="line"/>
      <point x="541" y="50" type="line"/>
      <point x="562" y="50" type="line"/>
      <point x="562" y="298" type="line"/>
    </contour>
    <contour>
      <point x="441" y="135" type="line"/>
      <point x="540" y="50" type="line"/>
      <point x="554" y="66" type="line"/>
      <point x="456" y="150" type="line"/>
    </contour>
    <contour>
      <point x="253" y="221" type="line"/>
      <point x="267" y="235" type="line"/>
      <point x="231" y="256" type="line"/>
      <point x="219" y="242" type="line"/>
    </contour>
    <contour>
      <point x="232" y="343" type="line"/>
      <point x="274" y="375" type="line"/>
      <point x="260" y="389" type="line"/>
      <point x="218" y="357" type="line"/>
    </contour>
    <contour>
      <point x="458" y="261" type="line"/>
      <point x="551" y="283" type="line"/>
      <point x="537" y="297" type="line"/>
      <point x="444" y="275" type="line"/>
    </contour>
    <contour>
      <point x="438" y="139" type="line"/>
      <point x="458" y="139" type="line"/>
      <point x="458" y="273" type="line"/>
      <point x="438" y="273" type="line"/>
    </contour>
    <contour>
      <point x="434" y="261" type="line"/>
      <point x="448" y="275" type="line"/>
      <point x="351" y="297" type="line"/>
      <point x="337" y="283" type="line"/>
    </contour>
    <contour>
      <point x="332" y="352" type="line"/>
      <point x="456" y="414" type="line"/>
      <point x="450" y="430" type="line"/>
      <point x="326" y="368" type="line"/>
    </contour>
    <contour>
      <point x="444" y="252" type="line"/>
      <point x="444" y="268" type="line"/>
      <point x="333" y="252" type="line"/>
      <point x="320" y="233" type="line"/>
    </contour>
  </outline>
</glyph>
<glyph name="H" format="2">
  <advance width="570"/>
  <unicode hex="0048"/>
  <anchor x="285" y="50" name="bottom"/>
  <anchor x="285" y="300" name="center"/>
  <anchor x="285" y="550" name="top"/>
  <anchor x="25" y="550" name="topleft"/>
  <outline>
    <contour>
      <point x="10" y="50" type="line"/>
      <point x="250" y="50" type="line"/>
      <point x="250" y="70" type="line"/>
      <point x="10" y="70" type="line"/>
    </contour>
    <contour>
      <point x="26" y="50" type="line"/>
      <point x="138" y="215" type="line"/>
      <point x="122" y="228" type="line"/>
      <point x="10" y="63" type="line"/>
    </contour>
    <contour>
      <point x="10" y="50" type="line"/>
      <point x="30" y="50" type="line"/>
      <point x="30" y="550" type="line"/>
      <point x="10" y="550" type="line"/>
    </contour>
    <contour>
      <point x="234" y="50" type="line"/>
      <point x="250" y="63" type="line"/>
      <point x="138" y="228" type="line"/>
      <point x="122" y="215" type="line"/>
    </contour>
    <contour>
      <point x="230" y="50" type="line"/>
      <point x="250" y="50" type="line"/>
      <point x="250" y="248" type="line"/>
      <point x="230" y="248" type="line"/>
    </contour>
    <contour>
      <point x="120" y="213" type="line"/>
      <point x="140" y="213" type="line"/>
      <point x="140" y="506" type="line"/>
      <point x="120" y="506" type="line"/>
    </contour>
    <contour>
      <point x="320" y="50" type="line"/>
      <point x="340" y="50" type="line"/>
      <point x="340" y="248" type="line"/>
      <point x="320" y="248" type="line"/>
    </contour>
    <contour>
      <point x="237" y="240" type="line"/>
      <point x="253" y="252" type="line"/>
      <point x="135" y="380" type="line"/>
      <point x="120" y="366" type="line"/>
    </contour>
    <contour>
      <point x="320" y="50" type="line"/>
      <point x="560" y="50" type="line"/>
      <point x="560" y="70" type="line"/>
      <point x="320" y="70" type="line"/>
    </contour>
    <contour>
      <point x="336" y="50" type="line"/>
      <point x="448" y="215" type="line"/>
      <point x="432" y="228" type="line"/>
      <point x="320" y="63" type="line"/>
    </contour>
    <contour>
      <point x="240" y="240" type="line"/>
      <point x="330" y="240" type="line"/>
      <point x="330" y="260" type="line"/>
      <point x="240" y="260" type="line"/>
    </contour>
    <contour>
      <point x="129" y="361" type="line"/>
      <point x="253" y="378" type="line"/>
      <point x="240" y="393" type="line"/>
      <point x="120" y="376" type="line"/>
    </contour>
    <contour>
      <point x="544" y="50" type="line"/>
      <point x="560" y="63" type="line"/>
      <point x="448" y="228" type="line"/>
      <point x="432" y="215" type="line"/>
    </contour>
    <contour>
      <point x="122" y="488" type="line"/>
      <point x="135" y="504" type="line"/>
      <point x="23" y="550" type="line"/>
      <point x="10" y="533" type="line"/>
    </contour>
    <contour>
      <point x="140" y="353" type="line"/>
      <point x="425" y="353" type="line"/>
      <point x="425" y="371" type="line"/>
      <point x="140" y="371" type="line"/>
    </contour>
    <contour>
      <point x="333" y="240" type="line"/>
      <point x="450" y="368" type="line"/>
      <point x="436" y="382" type="line"/>
      <point x="317" y="254" type="line"/>
    </contour>
    <contour>
      <point x="240" y="378" type="line"/>
      <point x="335" y="378" type="line"/>
      <point x="335" y="396" type="line"/>
      <point x="240" y="396" type="line"/>
    </contour>
    <contour>
      <point x="15" y="530" type="line"/>
      <point x="250" y="530" type="line"/>
      <point x="250" y="550" type="line"/>
      <point x="15" y="550" type="line"/>
    </contour>
    <contour>
      <point x="137" y="488" type="line"/>
      <point x="249" y="533" type="line"/>
      <point x="236" y="550" type="line"/>
      <point x="124" y="504" type="line"/>
    </contour>
    <contour>
      <point x="230" y="383" type="line"/>
      <point x="250" y="383" type="line"/>
      <point x="250" y="550" type="line"/>
      <point x="230" y="550" type="line"/>
    </contour>
    <contour>
      <point x="440" y="363" type="line"/>
      <point x="450" y="378" type="line"/>
      <point x="328" y="396" type="line"/>
      <point x="317" y="380" type="line"/>
    </contour>
    <contour>
      <point x="430" y="213" type="line"/>
      <point x="450" y="213" type="line"/>
      <point x="450" y="506" type="line"/>
      <point x="430" y="506" type="line"/>
    </contour>
    <contour>
      <point x="320" y="383" type="line"/>
      <point x="340" y="383" type="line"/>
      <point x="340" y="550" type="line"/>
      <point x="320" y="550" type="line"/>
    </contour>
    <contour>
      <point x="540" y="50" type="line"/>
      <point x="560" y="50" type="line"/>
      <point x="560" y="550" type="line"/>
      <point x="540" y="550" type="line"/>
    </contour>
    <contour>
      <point x="432" y="488" type="line"/>
      <point x="445" y="504" type="line"/>
      <point x="333" y="550" type="line"/>
      <point x="320" y="533" type="line"/>
    </contour>
    <contour>
      <point x="447" y="488" type="line"/>
      <point x="559" y="533" type="line"/>
      <point x="546" y="550" type="line"/>
      <point x="434" y="504" type="line"/>
    </contour>
    <contour>
      <point x="325" y="530" type="line"/>
      <point x="560" y="530" type="line"/>
      <point x="560" y="550" type="line"/>
      <point x="325" y="550" type="line"/>
    </contour>
  </outline>
</glyph>
<glyph name="L" format="2">
  <advance width="455"/>
  <unicode hex="004C"/>
  <anchor x="230" y="50" name="bottom"/>
  <anchor x="130" y="300" name="center"/>
  <anchor x="130" y="550" name="top"/>
  <anchor x="335" y="550" name="topright"/>
  <outline>
    <contour>
      <point x="23" y="50" type="line"/>
      <point x="135" y="213" type="line"/>
      <point x="122" y="226" type="line"/>
      <point x="10" y="63" type="line"/>
    </contour>
    <contour>
      <point x="10" y="50" type="line"/>
      <point x="30" y="50" type="line"/>
      <point x="30" y="550" type="line"/>
      <point x="10" y="550" type="line"/>
    </contour>
    <contour>
      <point x="120" y="221" type="line"/>
      <point x="140" y="221" type="line"/>
      <point x="140" y="505" type="line"/>
      <point x="120" y="505" type="line"/>
    </contour>
    <contour>
      <point x="122" y="488" type="line"/>
      <point x="136" y="503" type="line"/>
      <point x="23" y="550" type="line"/>
      <point x="10" y="533" type="line"/>
    </contour>
    <contour>
      <point x="230" y="231" type="line"/>
      <point x="250" y="231" type="line"/>
      <point x="250" y="538" type="line"/>
      <point x="230" y="538" type="line"/>
    </contour>
    <contour>
      <point x="20" y="50" type="line"/>
      <point x="443" y="50" type="line"/>
      <point x="443" y="70" type="line"/>
      <point x="20" y="70" type="line"/>
    </contour>
    <contour>
      <point x="139" y="216" type="line"/>
      <point x="249" y="232" type="line"/>
      <point x="238" y="249" type="line"/>
      <point x="126" y="230" type="line"/>
    </contour>
    <contour>
      <point x="126" y="206" type="line"/>
      <point x="350" y="206" type="line"/>
      <point x="350" y="226" type="line"/>
      <point x="126" y="226" type="line"/>
    </contour>
    <contour>
      <point x="230" y="231" type="line"/>
      <point x="440" y="231" type="line"/>
      <point x="440" y="246" type="line"/>
      <point x="230" y="246" type="line"/>
    </contour>
    <contour>
      <point x="429" y="59" type="line"/>
      <point x="443" y="72" type="line"/>
      <point x="347" y="223" type="line"/>
      <point x="329" y="216" type="line"/>
    </contour>
    <contour>
      <point x="347" y="208" type="line"/>
      <point x="443" y="231" type="line"/>
      <point x="430" y="246" type="line"/>
      <point x="330" y="224" type="line"/>
    </contour>
    <contour>
      <point x="430" y="50" type="line"/>
      <point x="450" y="50" type="line"/>
      <point x="450" y="246" type="line"/>
      <point x="430" y="246" type="line"/>
    </contour>
    <contour>
      <point x="20" y="550" type="line"/>
      <point x="20" y="530" type="line"/>
      <point x="250" y="530" type="line"/>
      <point x="250" y="550" type="line"/>
    </contour>
    <contour>
      <point x="236" y="550" type="line"/>
      <point x="121" y="503" type="line"/>
      <point x="134" y="487" type="line"/>
      <point x="247" y="532" type="line"/>
    </contour>
  </outline>
</glyph>
<glyph name="M" format="2">
  <advance width="789"/>
  <unicode hex="004D"/>
  <outline>
    <contour>
      <point x="758" y="57" type="line"/>
      <point x="772" y="73" type="line"/>
      <point x="662" y="214" type="line"/>
      <point x="655" y="190" type="line"/>
    </contour>
    <contour>
      <point x="550" y="50" type="line"/>
      <point x="779" y="50" type="line"/>
      <point x="779" y="70" type="line"/>
      <point x="550" y="70" type="line"/>
    </contour>
    <contour>
      <point x="559" y="56" type="line"/>
      <point x="668" y="189" type="line"/>
      <point x="661" y="213" type="line"/>
      <point x="553" y="80" type="line"/>
    </contour>
    <contour>
      <point x="759" y="50" type="line"/>
      <point x="779" y="50" type="line"/>
      <point x="779" y="550" type="line"/>
      <point x="759" y="550" type="line"/>
    </contour>
    <contour>
      <point x="550" y="52" type="line"/>
      <point x="570" y="52" type="line"/>
      <point x="570" y="545" type="line"/>
      <point x="550" y="545" type="line"/>
    </contour>
    <contour>
      <point x="651" y="191" type="line"/>
      <point x="671" y="190" type="line"/>
      <point x="671" y="507" type="line"/>
      <point x="651" y="508" type="line"/>
    </contour>
    <contour>
      <point x="461" y="530" type="line"/>
      <point x="779" y="530" type="line"/>
      <point x="779" y="550" type="line"/>
      <point x="461" y="550" type="line"/>
    </contour>
    <contour>
      <point x="654" y="490" type="line"/>
      <point x="668" y="506" type="line"/>
      <point x="576" y="540" type="line"/>
      <point x="562" y="527" type="line"/>
    </contour>
    <contour>
      <point x="661" y="485" type="line"/>
      <point x="773" y="527" type="line"/>
      <point x="765" y="542" type="line"/>
      <point x="653" y="504" type="line"/>
    </contour>
    <contour>
      <point x="338" y="184" type="line"/>
      <point x="352" y="170" type="line"/>
      <point x="564" y="538" type="line"/>
      <point x="545" y="545" type="line"/>
    </contour>
    <contour>
      <point x="333" y="175" type="line"/>
      <point x="414" y="57" type="line"/>
      <point x="428" y="71" type="line"/>
      <point x="346" y="192" type="line"/>
    </contour>
    <contour>
      <point x="311" y="58" type="line"/>
      <point x="350" y="182" type="line"/>
      <point x="332" y="190" type="line"/>
      <point x="293" y="65" type="line"/>
    </contour>
    <contour>
      <point x="405" y="56" type="line"/>
      <point x="425" y="50" type="line"/>
      <point x="556" y="295" type="line"/>
      <point x="552" y="325" type="line"/>
    </contour>
    <contour>
      <point x="293" y="50" type="line"/>
      <point x="425" y="50" type="line"/>
      <point x="425" y="70" type="line"/>
      <point x="293" y="70" type="line"/>
    </contour>
    <contour>
      <point x="293" y="51" type="line"/>
      <point x="312" y="58" type="line"/>
      <point x="101" y="507" type="line"/>
      <point x="88" y="490" type="line"/>
    </contour>
    <contour>
      <point x="331" y="163" type="line"/>
      <point x="348" y="170" type="line"/>
      <point x="185" y="514" type="line"/>
      <point x="167" y="511" type="line"/>
    </contour>
    <contour>
      <point x="310" y="246" type="line"/>
      <point x="480" y="544" type="line"/>
      <point x="461" y="550" type="line"/>
      <point x="299" y="265" type="line"/>
    </contour>
    <contour>
      <point x="11" y="530" type="line"/>
      <point x="247" y="530" type="line"/>
      <point x="247" y="550" type="line"/>
      <point x="11" y="550" type="line"/>
    </contour>
    <contour>
      <point x="10" y="50" type="line"/>
      <point x="31" y="50" type="line"/>
      <point x="31" y="550" type="line"/>
      <point x="10" y="550" type="line"/>
    </contour>
    <contour>
      <point x="86" y="160" type="line"/>
      <point x="107" y="159" type="line"/>
      <point x="107" y="504" type="line"/>
      <point x="86" y="504" type="line"/>
    </contour>
    <contour>
      <point x="166" y="50" type="line"/>
      <point x="185" y="50" type="line"/>
      <point x="185" y="300" type="line"/>
      <point x="166" y="337" type="line"/>
    </contour>
    <contour>
      <point x="335" y="322" type="line"/>
      <point x="348" y="341" type="line"/>
      <point x="247" y="549" type="line"/>
      <point x="227" y="546" type="line"/>
    </contour>
    <contour>
      <point x="33" y="64" type="line"/>
      <point x="105" y="168" type="line"/>
      <point x="93" y="184" type="line"/>
      <point x="21" y="80" type="line"/>
    </contour>
    <contour>
      <point x="168" y="62" type="line"/>
      <point x="179" y="79" type="line"/>
      <point x="102" y="180" type="line"/>
      <point x="91" y="162" type="line"/>
    </contour>
    <contour>
      <point x="12" y="50" type="line"/>
      <point x="185" y="50" type="line"/>
      <point x="185" y="70" type="line"/>
      <point x="12" y="70" type="line"/>
    </contour>
    <contour>
      <point x="92" y="489" type="line"/>
      <point x="107" y="505" type="line"/>
      <point x="26" y="548" type="line"/>
      <point x="12" y="534" type="line"/>
    </contour>
    <contour>
      <point x="100" y="490" type="line"/>
      <point x="249" y="529" type="line"/>
      <point x="230" y="543" type="line"/>
      <point x="91" y="507" type="line"/>
    </contour>
  </outline>
</glyph>
<glyph name="T" format="2">
  <advance width="530"/>
  <unicode hex="0054"/>
  <anchor x="265" y="50" name="bottom"/>
  <anchor x="265" y="300" name="center"/>
  <anchor x="265" y="550" name="top"/>
  <outline>
    <contour>
      <point x="158" y="50" type="line"/>
      <point x="270" y="212" type="line"/>
      <point x="257" y="225" type="line"/>
      <point x="145" y="63" type="line"/>
    </contour>
    <contour>
      <point x="145" y="50" type="line"/>
      <point x="385" y="50" type="line"/>
      <point x="385" y="70" type="line"/>
      <point x="145" y="70" type="line"/>
    </contour>
    <contour>
      <point x="145" y="50" type="line"/>
      <point x="165" y="50" type="line"/>
      <point x="165" y="330" type="line"/>
      <point x="145" y="330" type="line"/>
    </contour>
    <contour>
      <point x="372" y="50" type="line"/>
      <point x="385" y="63" type="line"/>
      <point x="273" y="225" type="line"/>
      <point x="260" y="212" type="line"/>
    </contour>
    <contour>
      <point x="6" y="316" type="line"/>
      <point x="154" y="316" type="line"/>
      <point x="154" y="336" type="line"/>
      <point x="6" y="336" type="line"/>
    </contour>
    <contour>
      <point x="25" y="322" type="line"/>
      <point x="107" y="489" type="line"/>
      <point x="94" y="503" type="line"/>
      <point x="11" y="334" type="line"/>
    </contour>
    <contour>
      <point x="5" y="316" type="line"/>
      <point x="25" y="316" type="line"/>
      <point x="25" y="550" type="line"/>
      <point x="5" y="550" type="line"/>
    </contour>
    <contour>
      <point x="255" y="210" type="line"/>
      <point x="275" y="210" type="line"/>
      <point x="275" y="491" type="line"/>
      <point x="255" y="491" type="line"/>
    </contour>
    <contour>
      <point x="365" y="50" type="line"/>
      <point x="385" y="50" type="line"/>
      <point x="385" y="330" type="line"/>
      <point x="365" y="330" type="line"/>
    </contour>
    <contour>
      <point x="94" y="489" type="line"/>
      <point x="107" y="503" type="line"/>
      <point x="25" y="550" type="line"/>
      <point x="11" y="538" type="line"/>
    </contour>
    <contour>
      <point x="158" y="315" type="line"/>
      <point x="270" y="487" type="line"/>
      <point x="257" y="500" type="line"/>
      <point x="145" y="328" type="line"/>
    </contour>
    <contour>
      <point x="371" y="315" type="line"/>
      <point x="384" y="328" type="line"/>
      <point x="272" y="500" type="line"/>
      <point x="259" y="487" type="line"/>
    </contour>
    <contour>
      <point x="95" y="487" type="line"/>
      <point x="437" y="487" type="line"/>
      <point x="437" y="507" type="line"/>
      <point x="95" y="507" type="line"/>
    </contour>
    <contour>
      <point x="376" y="316" type="line"/>
      <point x="524" y="316" type="line"/>
      <point x="524" y="336" type="line"/>
      <point x="376" y="336" type="line"/>
    </contour>
    <contour>
      <point x="6" y="530" type="line"/>
      <point x="524" y="530" type="line"/>
      <point x="524" y="550" type="line"/>
      <point x="6" y="550" type="line"/>
    </contour>
    <contour>
      <point x="507" y="322" type="line"/>
      <point x="521" y="334" type="line"/>
      <point x="438" y="503" type="line"/>
      <point x="425" y="489" type="line"/>
    </contour>
    <contour>
      <point x="505" y="316" type="line"/>
      <point x="525" y="316" type="line"/>
      <point x="525" y="550" type="line"/>
      <point x="505" y="550" type="line"/>
    </contour>
    <contour>
      <point x="438" y="489" type="line"/>
      <point x="521" y="538" type="line"/>
      <point x="507" y="550" type="line"/>
      <point x="425" y="503" type="line"/>
    </contour>
  </outline>
</glyph>
<glyph name="U" format="2">
  <advance width="525"/>
  <unicode hex="0055"/>
  <anchor x="260" y="50" name="bottom"/>
  <anchor x="340" y="68" name="ogonek"/>
  <anchor x="260" y="550" name="top"/>
  <anchor x="500" y="550" name="topright"/>
  <outline>
    <contour>
      <point x="5" y="550" type="line"/>
      <point x="5" y="223" type="line"/>
      <point x="25" y="223" type="line"/>
      <point x="25" y="550" type="line"/>
    </contour>
    <contour>
      <point x="225" y="550" type="line"/>
      <point x="225" y="258" type="line"/>
      <point x="245" y="258" type="line"/>
      <point x="245" y="550" type="line"/>
    </contour>
    <contour>
      <point x="335" y="550" type="line"/>
      <point x="335" y="257" type="line"/>
      <point x="355" y="257" type="line"/>
      <point x="355" y="550" type="line"/>
    </contour>
    <contour>
      <point x="495" y="550" type="line"/>
      <point x="495" y="224" type="line"/>
      <point x="515" y="224" type="line"/>
      <point x="515" y="550" type="line"/>
    </contour>
    <contour>
      <point x="5" y="550" type="line"/>
      <point x="5" y="530" type="line"/>
      <point x="245" y="530" type="line"/>
      <point x="245" y="550" type="line"/>
    </contour>
    <contour>
      <point x="335" y="550" type="line"/>
      <point x="335" y="530" type="line"/>
      <point x="515" y="530" type="line"/>
      <point x="515" y="550" type="line"/>
    </contour>
    <contour>
      <point x="170" y="70" type="line"/>
      <point x="170" y="50" type="line"/>
      <point x="350" y="50" type="line"/>
      <point x="350" y="70" type="line"/>
    </contour>
    <contour>
      <point x="5" y="223" type="line"/>
      <point x="170" y="50" type="line"/>
      <point x="185" y="63" type="line"/>
      <point x="20" y="237" type="line"/>
    </contour>
    <contour>
      <point x="335" y="63" type="line"/>
      <point x="350" y="50" type="line"/>
      <point x="515" y="224" type="line"/>
      <point x="500" y="238" type="line"/>
    </contour>
    <contour>
      <point x="110" y="500" type="line"/>
      <point x="110" y="299" type="line"/>
      <point x="130" y="299" type="line"/>
      <point x="130" y="500" type="line"/>
    </contour>
    <contour>
      <point x="415" y="508" type="line"/>
      <point x="415" y="291" type="line"/>
      <point x="435" y="291" type="line"/>
      <point x="435" y="508" type="line"/>
    </contour>
    <contour>
      <point x="227" y="545" type="line"/>
      <point x="110" y="500" type="line"/>
      <point x="122" y="484" type="line"/>
      <point x="239" y="529" type="line"/>
    </contour>
    <contour>
      <point x="119" y="484" type="line"/>
      <point x="131" y="500" type="line"/>
      <point x="21" y="547" type="line"/>
      <point x="9" y="531" type="line"/>
    </contour>
    <contour>
      <point x="261" y="245" type="line"/>
      <point x="261" y="225" type="line"/>
      <point x="313" y="225" type="line"/>
      <point x="313" y="245" type="line"/>
    </contour>
    <contour>
      <point x="211" y="218" type="line"/>
      <point x="211" y="198" type="line"/>
      <point x="341" y="198" type="line"/>
      <point x="341" y="218" type="line"/>
    </contour>
    <contour>
      <point x="499" y="548" type="line"/>
      <point x="417" y="511" type="line"/>
      <point x="429" y="495" type="line"/>
      <point x="511" y="532" type="line"/>
    </contour>
    <contour>
      <point x="424" y="492" type="line"/>
      <point x="436" y="508" type="line"/>
      <point x="351" y="547" type="line"/>
      <point x="339" y="531" type="line"/>
    </contour>
    <contour>
      <point x="13" y="239" type="line"/>
      <point x="23" y="221" type="line"/>
      <point x="128" y="297" type="line"/>
      <point x="118" y="311" type="line"/>
    </contour>
    <contour>
      <point x="208" y="215" type="line"/>
      <point x="166" y="65" type="line"/>
      <point x="184" y="58" type="line"/>
      <point x="225" y="204" type="line"/>
    </contour>
    <contour>
      <point x="266" y="241" type="line"/>
      <point x="205" y="214" type="line"/>
      <point x="221" y="203" type="line"/>
      <point x="283" y="233" type="line"/>
    </contour>
    <contour>
      <point x="339" y="59" type="line"/>
      <point x="358" y="64" type="line"/>
      <point x="345" y="210" type="line"/>
      <point x="326" y="205" type="line"/>
    </contour>
    <contour>
      <point x="326" y="208" type="line"/>
      <point x="345" y="214" type="line"/>
      <point x="308" y="242" type="line"/>
      <point x="292" y="231" type="line"/>
    </contour>
    <contour>
      <point x="126" y="308" type="line"/>
      <point x="111" y="295" type="line"/>
      <point x="211" y="198" type="line"/>
      <point x="227" y="211" type="line"/>
    </contour>
    <contour>
      <point x="428" y="304" type="line"/>
      <point x="423" y="285" type="line"/>
      <point x="500" y="214" type="line"/>
      <point x="505" y="233" type="line"/>
    </contour>
    <contour>
      <point x="241" y="270" type="line"/>
      <point x="225" y="258" type="line"/>
      <point x="261" y="225" type="line"/>
      <point x="277" y="236" type="line"/>
    </contour>
    <contour>
      <point x="340" y="197" type="line"/>
      <point x="435" y="291" type="line"/>
      <point x="421" y="303" type="line"/>
      <point x="325" y="209" type="line"/>
    </contour>
    <contour>
      <point x="313" y="225" type="line"/>
      <point x="361" y="260" type="line"/>
      <point x="345" y="272" type="line"/>
      <point x="297" y="237" type="line"/>
    </contour>
    <contour>
      <point x="119" y="294" type="line"/>
      <point x="246" y="246" type="line"/>
      <point x="241" y="265" type="line"/>
      <point x="114" y="313" type="line"/>
    </contour>
    <contour>
      <point x="347" y="271" type="line"/>
      <point x="342" y="249" type="line"/>
      <point x="425" y="286" type="line"/>
      <point x="430" y="308" type="line"/>
    </contour>
  </outline>
</glyph>
<glyph name="V" format="2">
  <advance width="579"/>
  <unicode hex="0056"/>
  <anchor x="290" y="50" name="bottom"/>
  <anchor x="290" y="550" name="top"/>
  <outline>
    <contour>
      <point x="2" y="550" type="line"/>
      <point x="171" y="50" type="line"/>
      <point x="192" y="55" type="line"/>
      <point x="24" y="550" type="line"/>
    </contour>
    <contour>
      <point x="181" y="53" type="line"/>
      <point x="307" y="192" type="line"/>
      <point x="294" y="213" type="line"/>
      <point x="168" y="73" type="line"/>
    </contour>
    <contour>
      <point x="171" y="50" type="line"/>
      <point x="408" y="50" type="line"/>
      <point x="408" y="70" type="line"/>
      <point x="171" y="70" type="line"/>
    </contour>
    <contour>
      <point x="403" y="55" type="line"/>
      <point x="414" y="73" type="line"/>
      <point x="294" y="213" type="line"/>
      <point x="283" y="194" type="line"/>
    </contour>
    <contour>
      <point x="280" y="187" type="line"/>
      <point x="300" y="196" type="line"/>
      <point x="185" y="501" type="line"/>
      <point x="162" y="501" type="line"/>
    </contour>
    <contour>
      <point x="176" y="479" type="line"/>
      <point x="186" y="498" type="line"/>
      <point x="23" y="547" type="line"/>
      <point x="13" y="530" type="line"/>
    </contour>
    <contour>
      <point x="317" y="273" type="line"/>
      <point x="330" y="295" type="line"/>
      <point x="238" y="550" type="line"/>
      <point x="217" y="547" type="line"/>
    </contour>
    <contour>
      <point x="16" y="530" type="line"/>
      <point x="237" y="530" type="line"/>
      <point x="237" y="550" type="line"/>
      <point x="16" y="550" type="line"/>
    </contour>
    <contour>
      <point x="350" y="140" type="line"/>
      <point x="470" y="508" type="line"/>
      <point x="451" y="514" type="line"/>
      <point x="334" y="159" type="line"/>
    </contour>
    <contour>
      <point x="187" y="484" type="line"/>
      <point x="240" y="532" type="line"/>
      <point x="229" y="547" type="line"/>
      <point x="173" y="500" type="line"/>
    </contour>
    <contour>
      <point x="306" y="190" type="line"/>
      <point x="424" y="544" type="line"/>
      <point x="405" y="550" type="line"/>
      <point x="286" y="195" type="line"/>
    </contour>
    <contour>
      <point x="408" y="50" type="line"/>
      <point x="577" y="550" type="line"/>
      <point x="557" y="550" type="line"/>
      <point x="388" y="55" type="line"/>
    </contour>
    <contour>
      <point x="455" y="490" type="line"/>
      <point x="470" y="505" type="line"/>
      <point x="420" y="542" type="line"/>
      <point x="402" y="532" type="line"/>
    </contour>
    <contour>
      <point x="460" y="489" type="line"/>
      <point x="569" y="530" type="line"/>
      <point x="565" y="548" type="line"/>
      <point x="449" y="505" type="line"/>
    </contour>
    <contour>
      <point x="405" y="530" type="line"/>
      <point x="570" y="530" type="line"/>
      <point x="570" y="550" type="line"/>
      <point x="405" y="550" type="line"/>
    </contour>
  </outline>
</glyph>
<glyph name="X" format="2">
  <advance width="589"/>
  <unicode hex="0058"/>
  <outline>
    <contour>
      <point x="562" y="50" type="line"/>
      <point x="584" y="50" type="line"/>
      <point x="408" y="315" type="line"/>
      <point x="389" y="309" type="line"/>
    </contour>
    <contour>
      <point x="22" y="50" type="line"/>
      <point x="206" y="50" type="line"/>
      <point x="206" y="70" type="line"/>
      <point x="22" y="70" type="line"/>
    </contour>
    <contour>
      <point x="42" y="55" type="line"/>
      <point x="184" y="196" type="line"/>
      <point x="171" y="209" type="line"/>
      <point x="29" y="68" type="line"/>
    </contour>
    <contour>
      <point x="29" y="50" type="line"/>
      <point x="232" y="309" type="line"/>
      <point x="219" y="320" type="line"/>
      <point x="5" y="50" type="line"/>
    </contour>
    <contour>
      <point x="195" y="54" type="line"/>
      <point x="213" y="66" type="line"/>
      <point x="183" y="211" type="line"/>
      <point x="167" y="198" type="line"/>
    </contour>
    <contour>
      <point x="207" y="50" type="line"/>
      <point x="282" y="156" type="line"/>
      <point x="273" y="176" type="line"/>
      <point x="183" y="50" type="line"/>
    </contour>
    <contour>
      <point x="327" y="50" type="line"/>
      <point x="342" y="65" type="line"/>
      <point x="226" y="267" type="line"/>
      <point x="212" y="253" type="line"/>
    </contour>
    <contour>
      <point x="333" y="55" type="line"/>
      <point x="416" y="193" type="line"/>
      <point x="403" y="209" type="line"/>
      <point x="320" y="71" type="line"/>
    </contour>
    <contour>
      <point x="177" y="187" type="line"/>
      <point x="311" y="363" type="line"/>
      <point x="299" y="376" type="line"/>
      <point x="161" y="197" type="line"/>
    </contour>
    <contour>
      <point x="327" y="50" type="line"/>
      <point x="572" y="50" type="line"/>
      <point x="572" y="70" type="line"/>
      <point x="327" y="70" type="line"/>
    </contour>
    <contour>
      <point x="218" y="304" type="line"/>
      <point x="231" y="315" type="line"/>
      <point x="38" y="550" type="line"/>
      <point x="16" y="550" type="line"/>
    </contour>
    <contour>
      <point x="557" y="57" type="line"/>
      <point x="566" y="75" type="line"/>
      <point x="406" y="214" type="line"/>
      <point x="396" y="197" type="line"/>
    </contour>
    <contour>
      <point x="224" y="301" type="line"/>
      <point x="310" y="369" type="line"/>
      <point x="298" y="376" type="line"/>
      <point x="213" y="314" type="line"/>
    </contour>
    <contour>
      <point x="405" y="186" type="line"/>
      <point x="419" y="200" type="line"/>
      <point x="307" y="377" type="line"/>
      <point x="294" y="362" type="line"/>
    </contour>
    <contour>
      <point x="298" y="354" type="line"/>
      <point x="312" y="366" type="line"/>
      <point x="193" y="506" type="line"/>
      <point x="179" y="494" type="line"/>
    </contour>
    <contour>
      <point x="189" y="487" type="line"/>
      <point x="197" y="506" type="line"/>
      <point x="47" y="539" type="line"/>
      <point x="39" y="522" type="line"/>
    </contour>
    <contour>
      <point x="308" y="355" type="line"/>
      <point x="411" y="294" type="line"/>
      <point x="402" y="320" type="line"/>
      <point x="289" y="382" type="line"/>
    </contour>
    <contour>
      <point x="35" y="530" type="line"/>
      <point x="268" y="530" type="line"/>
      <point x="268" y="550" type="line"/>
      <point x="35" y="550" type="line"/>
    </contour>
    <contour>
      <point x="193" y="490" type="line"/>
      <point x="278" y="529" type="line"/>
      <point x="265" y="542" type="line"/>
      <point x="180" y="505" type="line"/>
    </contour>
    <contour>
      <point x="315" y="363" type="line"/>
      <point x="420" y="502" type="line"/>
      <point x="408" y="516" type="line"/>
      <point x="299" y="374" type="line"/>
    </contour>
    <contour>
      <point x="273" y="396" type="line"/>
      <point x="380" y="537" type="line"/>
      <point x="368" y="550" type="line"/>
      <point x="260" y="408" type="line"/>
    </contour>
    <contour>
      <point x="312" y="466" type="line"/>
      <point x="326" y="480" type="line"/>
      <point x="268" y="550" type="line"/>
      <point x="254" y="536" type="line"/>
    </contour>
    <contour>
      <point x="402" y="303" type="line"/>
      <point x="569" y="550" type="line"/>
      <point x="546" y="550" type="line"/>
      <point x="387" y="313" type="line"/>
    </contour>
    <contour>
      <point x="405" y="498" type="line"/>
      <point x="418" y="511" type="line"/>
      <point x="379" y="544" type="line"/>
      <point x="366" y="531" type="line"/>
    </contour>
    <contour>
      <point x="414" y="496" type="line"/>
      <point x="548" y="529" type="line"/>
      <point x="539" y="545" type="line"/>
      <point x="405" y="512" type="line"/>
    </contour>
    <contour>
      <point x="368" y="530" type="line"/>
      <point x="553" y="530" type="line"/>
      <point x="553" y="550" type="line"/>
      <point x="368" y="550" type="line"/>
    </contour>
  </outline>
</glyph>
<glyph name="Y" format="2">
  <advance width="573"/>
  <unicode hex="0059"/>
  <anchor x="290" y="50" name="bottom"/>
  <anchor x="290" y="550" name="top"/>
  <anchor x="17" y="550" name="topleft"/>
  <outline>
    <contour>
      <point x="175" y="249" type="line"/>
      <point x="193" y="256" type="line"/>
      <point x="23" y="550" type="line"/>
      <point x="2" y="550" type="line"/>
    </contour>
    <contour>
      <point x="169" y="50" type="line"/>
      <point x="189" y="50" type="line"/>
      <point x="189" y="268" type="line"/>
      <point x="169" y="259" type="line"/>
    </contour>
    <contour>
      <point x="185" y="50" type="line"/>
      <point x="294" y="250" type="line"/>
      <point x="281" y="268" type="line"/>
      <point x="169" y="63" type="line"/>
    </contour>
    <contour>
      <point x="169" y="50" type="line"/>
      <point x="409" y="50" type="line"/>
      <point x="409" y="70" type="line"/>
      <point x="169" y="70" type="line"/>
    </contour>
    <contour>
      <point x="288" y="262" type="line"/>
      <point x="298" y="283" type="line"/>
      <point x="171" y="268" type="line"/>
      <point x="171" y="248" type="line"/>
    </contour>
    <contour>
      <point x="393" y="50" type="line"/>
      <point x="409" y="63" type="line"/>
      <point x="297" y="268" type="line"/>
      <point x="284" y="250" type="line"/>
    </contour>
    <contour>
      <point x="279" y="250" type="line"/>
      <point x="299" y="250" type="line"/>
      <point x="299" y="279" type="line"/>
      <point x="279" y="278" type="line"/>
    </contour>
    <contour>
      <point x="389" y="50" type="line"/>
      <point x="409" y="50" type="line"/>
      <point x="409" y="264" type="line"/>
      <point x="389" y="264" type="line"/>
    </contour>
    <contour>
      <point x="292" y="263" type="line"/>
      <point x="408" y="250" type="line"/>
      <point x="408" y="269" type="line"/>
      <point x="281" y="284" type="line"/>
    </contour>
    <contour>
      <point x="280" y="263" type="line"/>
      <point x="297" y="278" type="line"/>
      <point x="164" y="503" type="line"/>
      <point x="143" y="500" type="line"/>
    </contour>
    <contour>
      <point x="255" y="338" type="line"/>
      <point x="379" y="543" type="line"/>
      <point x="360" y="550" type="line"/>
      <point x="237" y="345" type="line"/>
    </contour>
    <contour>
      <point x="154" y="491" type="line"/>
      <point x="168" y="507" type="line"/>
      <point x="30" y="542" type="line"/>
      <point x="15" y="529" type="line"/>
    </contour>
    <contour>
      <point x="304" y="270" type="line"/>
      <point x="441" y="503" type="line"/>
      <point x="422" y="509" type="line"/>
      <point x="286" y="280" type="line"/>
    </contour>
    <contour>
      <point x="20" y="533" type="line"/>
      <point x="259" y="533" type="line"/>
      <point x="259" y="550" type="line"/>
      <point x="20" y="550" type="line"/>
    </contour>
    <contour>
      <point x="156" y="491" type="line"/>
      <point x="260" y="533" type="line"/>
      <point x="248" y="547" type="line"/>
      <point x="147" y="509" type="line"/>
    </contour>
    <contour>
      <point x="303" y="439" type="line"/>
      <point x="320" y="450" type="line"/>
      <point x="259" y="550" type="line"/>
      <point x="240" y="543" type="line"/>
    </contour>
    <contour>
      <point x="406" y="250" type="line"/>
      <point x="571" y="550" type="line"/>
      <point x="551" y="550" type="line"/>
      <point x="387" y="256" type="line"/>
    </contour>
    <contour>
      <point x="427" y="491" type="line"/>
      <point x="440" y="506" type="line"/>
      <point x="367" y="543" type="line"/>
      <point x="353" y="531" type="line"/>
    </contour>
    <contour>
      <point x="433" y="492" type="line"/>
      <point x="558" y="526" type="line"/>
      <point x="548" y="540" type="line"/>
      <point x="427" y="509" type="line"/>
    </contour>
    <contour>
      <point x="360" y="533" type="line"/>
      <point x="561" y="533" type="line"/>
      <point x="562" y="550" type="line"/>
      <point x="360" y="550" type="line"/>
    </contour>
  </outline>
</glyph>
<glyph name="Z" format="2">
  <advance width="563"/>
  <unicode hex="005A"/>
  <anchor x="282" y="50" name="bottom"/>
  <anchor x="282" y="300" name="center"/>
  <anchor x="282" y="550" name="top"/>
  <outline>
    <contour>
      <point x="9" y="64" type="line"/>
      <point x="555" y="64" type="line"/>
    </contour>
    <contour>
      <point x="558" y="50" type="line"/>
      <point x="558" y="281" type="line"/>
      <point x="538" y="281" type="line"/>
      <point x="538" y="50" type="line"/>
    </contour>
    <contour>
      <point x="376" y="264" type="line"/>
      <point x="558" y="264" type="line"/>
      <point x="558" y="284" type="line"/>
      <point x="383" y="284" type="line"/>
    </contour>
    <contour>
      <point x="430" y="228" type="line"/>
      <point x="554" y="268" type="line"/>
      <point x="543" y="281" type="line"/>
      <point x="416" y="242" type="line"/>
    </contour>
    <contour>
      <point x="532" y="59" type="line"/>
      <point x="546" y="68" type="line"/>
      <point x="435" y="242" type="line"/>
      <point x="420" y="230" type="line"/>
    </contour>
    <contour>
      <point x="200" y="228" type="line"/>
      <point x="440" y="228" type="line"/>
      <point x="440" y="244" type="line"/>
      <point x="200" y="244" type="line"/>
    </contour>
    <contour>
      <point x="207" y="228" type="line"/>
      <point x="396" y="267" type="line"/>
      <point x="385" y="283" type="line"/>
      <point x="197" y="242" type="line"/>
    </contour>
    <contour>
      <point x="29" y="55" type="line"/>
      <point x="216" y="236" type="line"/>
      <point x="203" y="252" type="line"/>
      <point x="16" y="70" type="line"/>
    </contour>
    <contour>
      <point x="19" y="50" type="line"/>
      <point x="189" y="335" type="line"/>
      <point x="169" y="335" type="line"/>
      <point x="-3" y="50" type="line"/>
    </contour>
    <contour>
      <point x="6" y="535" type="line"/>
      <point x="547" y="535" type="line"/>
      <point x="547" y="550" type="line"/>
      <point x="6" y="550" type="line"/>
    </contour>
    <contour>
      <point x="4" y="50" type="line"/>
      <point x="555" y="50" type="line"/>
      <point x="555" y="68" type="line"/>
      <point x="11" y="68" type="line"/>
    </contour>
    <contour>
      <point x="390" y="267" type="line"/>
      <point x="558" y="550" type="line"/>
      <point x="536" y="550" type="line"/>
      <point x="372" y="275" type="line"/>
    </contour>
    <contour>
      <point x="25" y="316" type="line"/>
      <point x="25" y="550" type="line"/>
      <point x="5" y="550" type="line"/>
      <point x="5" y="316" type="line"/>
    </contour>
    <contour>
      <point x="10" y="316" type="line"/>
      <point x="176" y="316" type="line"/>
      <point x="176" y="336" type="line"/>
      <point x="10" y="336" type="line"/>
    </contour>
    <contour>
      <point x="174" y="314" type="line"/>
      <point x="358" y="484" type="line"/>
      <point x="349" y="501" type="line"/>
      <point x="160" y="326" type="line"/>
    </contour>
    <contour>
      <point x="120" y="486" type="line"/>
      <point x="362" y="486" type="line"/>
      <point x="362" y="507" type="line"/>
      <point x="120" y="507" type="line"/>
    </contour>
    <contour>
      <point x="24" y="316" type="line"/>
      <point x="139" y="503" type="line"/>
      <point x="121" y="507" type="line"/>
      <point x="9" y="326" type="line"/>
    </contour>
    <contour>
      <point x="206" y="228" type="line"/>
      <point x="374" y="501" type="line"/>
      <point x="355" y="504" type="line"/>
      <point x="190" y="238" type="line"/>
    </contour>
    <contour>
      <point x="359" y="486" type="line"/>
      <point x="540" y="529" type="line"/>
      <point x="543" y="550" type="line"/>
      <point x="349" y="506" type="line"/>
    </contour>
    <contour>
      <point x="121" y="487" type="line"/>
      <point x="138" y="500" type="line"/>
      <point x="29" y="548" type="line"/>
      <point x="6" y="541" type="line"/>
    </contour>
  </outline>
</glyph>
<glyph name="exclamdown" format="2">
  <advance width="240"/>
  <unicode hex="00A1"/>
  <outline>
    <contour>
      <point x="10" y="50" type="line"/>
      <point x="30" y="50" type="line"/>
      <point x="94" y="360" type="line"/>
      <point x="74" y="360" type="line"/>
    </contour>
    <contour>
      <point x="32" y="55" type="line"/>
      <point x="126" y="190" type="line"/>
      <point x="113" y="205" type="line"/>
      <point x="19" y="70" type="line"/>
    </contour>
    <contour>
      <point x="20" y="50" type="line"/>
      <point x="221" y="50" type="line"/>
      <point x="221" y="70" type="line"/>
      <point x="20" y="70" type="line"/>
    </contour>
    <contour>
      <point x="209" y="55" type="line"/>
      <point x="222" y="70" type="line"/>
      <point x="128" y="205" type="line"/>
      <point x="115" y="190" type="line"/>
    </contour>
    <contour>
      <point x="110" y="188" type="line"/>
      <point x="130" y="188" type="line"/>
      <point x="130" y="350" type="line"/>
      <point x="110" y="350" type="line"/>
    </contour>
    <contour>
      <point x="210" y="50" type="line"/>
      <point x="230" y="50" type="line"/>
      <point x="165" y="360" type="line"/>
      <point x="145" y="360" type="line"/>
    </contour>
    <contour>
      <point x="74" y="340" type="line"/>
      <point x="165" y="340" type="line"/>
      <point x="165" y="360" type="line"/>
      <point x="74" y="360" type="line"/>
    </contour>
    <contour>
      <point x="53" y="375" type="line"/>
      <point x="124" y="495" type="line"/>
      <point x="115" y="515" type="line"/>
      <point x="39" y="389" type="line"/>
    </contour>
    <contour>
      <point x="38" y="375" type="line"/>
      <point x="58" y="375" type="line"/>
      <point x="58" y="550" type="line"/>
      <point x="38" y="550" type="line"/>
    </contour>
    <contour>
      <point x="38" y="375" type="line"/>
      <point x="200" y="375" type="line"/>
      <point x="200" y="393" type="line"/>
      <point x="38" y="393" type="line"/>
    </contour>
    <contour>
      <point x="115" y="501" type="line"/>
      <point x="124" y="521" type="line"/>
      <point x="52" y="550" type="line"/>
      <point x="38" y="536" type="line"/>
    </contour>
    <contour>
      <point x="189" y="375" type="line"/>
      <point x="203" y="389" type="line"/>
      <point x="126" y="515" type="line"/>
      <point x="117" y="495" type="line"/>
    </contour>
    <contour>
      <point x="114" y="500" type="line"/>
      <point x="127" y="500" type="line"/>
      <point x="127" y="517" type="line"/>
      <point x="114" y="517" type="line"/>
    </contour>
    <contour>
      <point x="183" y="375" type="line"/>
      <point x="203" y="375" type="line"/>
      <point x="203" y="550" type="line"/>
      <point x="183" y="550" type="line"/>
    </contour>
    <contour>
      <point x="38" y="532" type="line"/>
      <point x="203" y="532" type="line"/>
      <point x="203" y="550" type="line"/>
      <point x="38" y="550" type="line"/>
    </contour>
    <contour>
      <point x="127" y="502" type="line"/>
      <point x="203" y="536" type="line"/>
      <point x="189" y="550" type="line"/>
      <point x="118" y="522" type="line"/>
    </contour>
  </outline>
</glyph>
<glyph name="periodcentered" format="2">
  <advance width="224"/>
  <unicode hex="00B7"/>
  <outline>
    <contour>
      <point x="15" y="213" type="line"/>
      <point x="209" y="213" type="line"/>
      <point x="209" y="232" type="line"/>
      <point x="15" y="232" type="line"/>
    </contour>
    <contour>
      <point x="30" y="213" type="line"/>
      <point x="116" y="363" type="line"/>
      <point x="104" y="381" type="line"/>
      <point x="15" y="228" type="line"/>
    </contour>
    <contour>
      <point x="194" y="213" type="line"/>
      <point x="209" y="228" type="line"/>
      <point x="119" y="382" type="line"/>
      <point x="107" y="364" type="line"/>
    </contour>
    <contour>
      <point x="15" y="213" type="line"/>
      <point x="34" y="213" type="line"/>
      <point x="34" y="417" type="line"/>
      <point x="15" y="417" type="line"/>
    </contour>
    <contour>
      <point x="104" y="366" type="line"/>
      <point x="120" y="366" type="line"/>
      <point x="120" y="382" type="line"/>
      <point x="104" y="382" type="line"/>
    </contour>
    <contour>
      <point x="190" y="213" type="line"/>
      <point x="209" y="213" type="line"/>
      <point x="209" y="417" type="line"/>
      <point x="190" y="417" type="line"/>
    </contour>
    <contour>
      <point x="105" y="367" type="line"/>
      <point x="117" y="385" type="line"/>
      <point x="30" y="417" type="line"/>
      <point x="15" y="402" type="line"/>
    </contour>
    <contour>
      <point x="19" y="398" type="line"/>
      <point x="209" y="398" type="line"/>
      <point x="209" y="417" type="line"/>
      <point x="19" y="417" type="line"/>
    </contour>
    <contour>
      <point x="119" y="367" type="line"/>
      <point x="208" y="402" type="line"/>
      <point x="193" y="417" type="line"/>
      <point x="107" y="385" type="line"/>
    </contour>
  </outline>
</glyph>
<glyph name="questiondown" format="2">
  <advance width="401"/>
  <unicode hex="00BF"/>
  <outline>
    <contour>
      <point x="201" y="340" type="line"/>
      <point x="86" y="273" type="line"/>
      <point x="96" y="257" type="line"/>
      <point x="211" y="325" type="line"/>
    </contour>
    <contour>
      <point x="158" y="331" type="line"/>
      <point x="5" y="267" type="line"/>
      <point x="17" y="251" type="line"/>
      <point x="162" y="312" type="line"/>
    </contour>
    <contour>
      <point x="160" y="360" type="line"/>
      <point x="136" y="309" type="line"/>
      <point x="157" y="314" type="line"/>
      <point x="180" y="360" type="line"/>
    </contour>
    <contour>
      <point x="5" y="267" type="line"/>
      <point x="5" y="115" type="line"/>
      <point x="25" y="115" type="line"/>
      <point x="25" y="267" type="line"/>
    </contour>
    <contour>
      <point x="232" y="360" type="line"/>
      <point x="191" y="360" type="line"/>
      <point x="191" y="341" type="line"/>
      <point x="232" y="341" type="line"/>
    </contour>
    <contour>
      <point x="192" y="353" type="line"/>
      <point x="192" y="325" type="line"/>
      <point x="212" y="325" type="line"/>
      <point x="212" y="353" type="line"/>
    </contour>
    <contour>
      <point x="81" y="274" type="line"/>
      <point x="81" y="205" type="line"/>
      <point x="101" y="205" type="line"/>
      <point x="101" y="274" type="line"/>
    </contour>
    <contour>
      <point x="99" y="278" type="line"/>
      <point x="93" y="260" type="line"/>
      <point x="188" y="222" type="line"/>
      <point x="194" y="238" type="line"/>
    </contour>
    <contour>
      <point x="185" y="221" type="line"/>
      <point x="91" y="217" type="line"/>
      <point x="95" y="200" type="line"/>
      <point x="188" y="204" type="line"/>
    </contour>
    <contour>
      <point x="16" y="131" type="line"/>
      <point x="5" y="115" type="line"/>
      <point x="121" y="50" type="line"/>
      <point x="133" y="66" type="line"/>
    </contour>
    <contour>
      <point x="204" y="337" type="line"/>
      <point x="192" y="321" type="line"/>
      <point x="248" y="272" type="line"/>
      <point x="258" y="289" type="line"/>
    </contour>
    <contour>
      <point x="227" y="360" type="line"/>
      <point x="246" y="276" type="line"/>
      <point x="266" y="275" type="line"/>
      <point x="247" y="360" type="line"/>
    </contour>
    <contour>
      <point x="173" y="234" type="line"/>
      <point x="173" y="206" type="line"/>
      <point x="193" y="206" type="line"/>
      <point x="193" y="234" type="line"/>
    </contour>
    <contour>
      <point x="95" y="216" type="line"/>
      <point x="83" y="201" type="line"/>
      <point x="151" y="156" type="line"/>
      <point x="163" y="171" type="line"/>
    </contour>
    <contour>
      <point x="256" y="291" type="line"/>
      <point x="173" y="235" type="line"/>
      <point x="183" y="221" type="line"/>
      <point x="266" y="275" type="line"/>
    </contour>
    <contour>
      <point x="186" y="218" type="line"/>
      <point x="172" y="205" type="line"/>
      <point x="192" y="185" type="line"/>
      <point x="210" y="193" type="line"/>
    </contour>
    <contour>
      <point x="192" y="204" type="line"/>
      <point x="192" y="183" type="line"/>
      <point x="234" y="183" type="line"/>
      <point x="234" y="204" type="line"/>
    </contour>
    <contour>
      <point x="242" y="229" type="line"/>
      <point x="242" y="206" type="line"/>
      <point x="262" y="206" type="line"/>
      <point x="262" y="229" type="line"/>
    </contour>
    <contour>
      <point x="253" y="221" type="line"/>
      <point x="222" y="198" type="line"/>
      <point x="236" y="183" type="line"/>
      <point x="264" y="206" type="line"/>
    </contour>
    <contour>
      <point x="218" y="195" type="line"/>
      <point x="243" y="166" type="line"/>
      <point x="266" y="169" type="line"/>
      <point x="237" y="202" type="line"/>
    </contour>
    <contour>
      <point x="148" y="176" type="line"/>
      <point x="151" y="156" type="line"/>
      <point x="256" y="156" type="line"/>
      <point x="256" y="176" type="line"/>
    </contour>
    <contour>
      <point x="242" y="244" type="line"/>
      <point x="242" y="224" type="line"/>
      <point x="396" y="224" type="line"/>
      <point x="396" y="244" type="line"/>
    </contour>
    <contour>
      <point x="325" y="216" type="line"/>
      <point x="250" y="175" type="line"/>
      <point x="258" y="157" type="line"/>
      <point x="336" y="201" type="line"/>
    </contour>
    <contour>
      <point x="121" y="70" type="line"/>
      <point x="121" y="50" type="line"/>
      <point x="287" y="50" type="line"/>
      <point x="284" y="70" type="line"/>
    </contour>
    <contour>
      <point x="326" y="201" type="line"/>
      <point x="380" y="129" type="line"/>
      <point x="387" y="145" type="line"/>
      <point x="334" y="217" type="line"/>
    </contour>
    <contour>
      <point x="262" y="171" type="line"/>
      <point x="243" y="165" type="line"/>
      <point x="275" y="55" type="line"/>
      <point x="293" y="61" type="line"/>
    </contour>
    <contour>
      <point x="376" y="224" type="line"/>
      <point x="376" y="137" type="line"/>
      <point x="396" y="134" type="line"/>
      <point x="396" y="224" type="line"/>
    </contour>
    <contour>
      <point x="386" y="152" type="line"/>
      <point x="274" y="65" type="line"/>
      <point x="287" y="50" type="line"/>
      <point x="396" y="134" type="line"/>
    </contour>
    <contour>
      <point x="334" y="217" type="line"/>
      <point x="253" y="221" type="line"/>
      <point x="249" y="204" type="line"/>
      <point x="326" y="201" type="line"/>
    </contour>
    <contour>
      <point x="87" y="221" type="line"/>
      <point x="11" y="126" type="line"/>
      <point x="23" y="114" type="line"/>
      <point x="97" y="205" type="line"/>
    </contour>
    <contour>
      <point x="18" y="269" type="line"/>
      <point x="12" y="252" type="line"/>
      <point x="92" y="259" type="line"/>
      <point x="98" y="277" type="line"/>
    </contour>
    <contour>
      <point x="148" y="322" type="line"/>
      <point x="142" y="303" type="line"/>
      <point x="191" y="323" type="line"/>
      <point x="197" y="341" type="line"/>
    </contour>
    <contour>
      <point x="203" y="360" type="line"/>
      <point x="164" y="360" type="line"/>
      <point x="164" y="341" type="line"/>
      <point x="203" y="341" type="line"/>
    </contour>
    <contour>
      <point x="286" y="550" type="line"/>
      <point x="121" y="550" type="line"/>
      <point x="121" y="532" type="line"/>
      <point x="286" y="532" type="line"/>
    </contour>
    <contour>
      <point x="272" y="550" type="line"/>
      <point x="201" y="521" type="line"/>
      <point x="210" y="501" type="line"/>
      <point x="286" y="536" type="line"/>
    </contour>
    <contour>
      <point x="135" y="550" type="line"/>
      <point x="121" y="536" type="line"/>
      <point x="198" y="500" type="line"/>
      <point x="207" y="520" type="line"/>
    </contour>
    <contour>
      <point x="286" y="550" type="line"/>
      <point x="266" y="550" type="line"/>
      <point x="266" y="375" type="line"/>
      <point x="286" y="375" type="line"/>
    </contour>
    <contour>
      <point x="210" y="516" type="line"/>
      <point x="197" y="516" type="line"/>
      <point x="197" y="499" type="line"/>
      <point x="210" y="499" type="line"/>
    </contour>
    <contour>
      <point x="141" y="550" type="line"/>
      <point x="121" y="550" type="line"/>
      <point x="121" y="375" type="line"/>
      <point x="141" y="375" type="line"/>
    </contour>
    <contour>
      <point x="209" y="514" type="line"/>
      <point x="200" y="494" type="line"/>
      <point x="272" y="375" type="line"/>
      <point x="286" y="389" type="line"/>
    </contour>
    <contour>
      <point x="283" y="393" type="line"/>
      <point x="121" y="393" type="line"/>
      <point x="121" y="375" type="line"/>
      <point x="283" y="375" type="line"/>
    </contour>
    <contour>
      <point x="198" y="514" type="line"/>
      <point x="122" y="389" type="line"/>
      <point x="136" y="375" type="line"/>
      <point x="207" y="494" type="line"/>
    </contour>
    <contour>
      <point x="191" y="201" type="line"/>
      <point x="144" y="167" type="line"/>
      <point x="162" y="161" type="line"/>
      <point x="210" y="193" type="line"/>
    </contour>
    <contour>
      <point x="147" y="174" type="line"/>
      <point x="108" y="65" type="line"/>
      <point x="126" y="59" type="line"/>
      <point x="166" y="168" type="line"/>
    </contour>
  </outline>
</glyph>
<glyph name="Oslash" format="2">
  <advance width="530"/>
  <unicode hex="00D8"/>
  <anchor x="265" y="50" name="bottom"/>
  <anchor x="265" y="550" name="top"/>
  <outline>
    <contour>
      <point x="78" y="155" type="line"/>
      <point x="91" y="171" type="line"/>
      <point x="19" y="214" type="line"/>
      <point x="5" y="200" type="line"/>
    </contour>
    <contour>
      <point x="25" y="197" type="line"/>
      <point x="118" y="209" type="line"/>
      <point x="106" y="225" type="line"/>
      <point x="19" y="214" type="line"/>
    </contour>
    <contour>
      <point x="166" y="50" type="line"/>
      <point x="254" y="201" type="line"/>
      <point x="239" y="210" type="line"/>
      <point x="145" y="50" type="line"/>
    </contour>
    <contour>
      <point x="188" y="50" type="line"/>
      <point x="375" y="50" type="line"/>
      <point x="375" y="68" type="line"/>
      <point x="188" y="68" type="line"/>
    </contour>
    <contour>
      <point x="247" y="192" type="line"/>
      <point x="250" y="208" type="line"/>
      <point x="109" y="225" type="line"/>
      <point x="95" y="211" type="line"/>
    </contour>
    <contour>
      <point x="5" y="200" type="line"/>
      <point x="25" y="200" type="line"/>
      <point x="25" y="410" type="line"/>
      <point x="5" y="410" type="line"/>
    </contour>
    <contour>
      <point x="242" y="192" type="line"/>
      <point x="324" y="192" type="line"/>
      <point x="324" y="210" type="line"/>
      <point x="242" y="210" type="line"/>
    </contour>
    <contour>
      <point x="363" y="59" type="line"/>
      <point x="378" y="68" type="line"/>
      <point x="330" y="210" type="line"/>
      <point x="315" y="201" type="line"/>
    </contour>
    <contour>
      <point x="95" y="211" type="line"/>
      <point x="115" y="211" type="line"/>
      <point x="115" y="415" type="line"/>
      <point x="95" y="415" type="line"/>
    </contour>
    <contour>
      <point x="320" y="196" type="line"/>
      <point x="333" y="210" type="line"/>
      <point x="289" y="218" type="line"/>
      <point x="276" y="204" type="line"/>
    </contour>
    <contour>
      <point x="102" y="404" type="line"/>
      <point x="108" y="421" type="line"/>
      <point x="25" y="413" type="line"/>
      <point x="19" y="396" type="line"/>
    </contour>
    <contour>
      <point x="330" y="192" type="line"/>
      <point x="435" y="275" type="line"/>
      <point x="421" y="289" type="line"/>
      <point x="316" y="206" type="line"/>
    </contour>
    <contour>
      <point x="375" y="50" type="line"/>
      <point x="525" y="200" type="line"/>
      <point x="511" y="214" type="line"/>
      <point x="361" y="64" type="line"/>
    </contour>
    <contour>
      <point x="420" y="273" type="line"/>
      <point x="426" y="289" type="line"/>
      <point x="285" y="217" type="line"/>
      <point x="291" y="202" type="line"/>
    </contour>
    <contour>
      <point x="258" y="418" type="line"/>
      <point x="255" y="435" type="line"/>
      <point x="115" y="417" type="line"/>
      <point x="109" y="401" type="line"/>
    </contour>
    <contour>
      <point x="19" y="396" type="line"/>
      <point x="169" y="536" type="line"/>
      <point x="155" y="550" type="line"/>
      <point x="5" y="410" type="line"/>
    </contour>
    <contour>
      <point x="109" y="401" type="line"/>
      <point x="214" y="502" type="line"/>
      <point x="200" y="516" type="line"/>
      <point x="95" y="415" type="line"/>
    </contour>
    <contour>
      <point x="505" y="197" type="line"/>
      <point x="511" y="217" type="line"/>
      <point x="428" y="295" type="line"/>
      <point x="422" y="275" type="line"/>
    </contour>
    <contour>
      <point x="250" y="419" type="line"/>
      <point x="265" y="429" type="line"/>
      <point x="210" y="510" type="line"/>
      <point x="195" y="500" type="line"/>
    </contour>
    <contour>
      <point x="415" y="275" type="line"/>
      <point x="435" y="275" type="line"/>
      <point x="435" y="455" type="line"/>
      <point x="415" y="455" type="line"/>
    </contour>
    <contour>
      <point x="201" y="503" type="line"/>
      <point x="221" y="509" type="line"/>
      <point x="179" y="540" type="line"/>
      <point x="159" y="534" type="line"/>
    </contour>
    <contour>
      <point x="200" y="498" type="line"/>
      <point x="330" y="498" type="line"/>
      <point x="330" y="516" type="line"/>
      <point x="200" y="516" type="line"/>
    </contour>
    <contour>
      <point x="505" y="200" type="line"/>
      <point x="525" y="200" type="line"/>
      <point x="525" y="411" type="line"/>
      <point x="505" y="411" type="line"/>
    </contour>
    <contour>
      <point x="425" y="436" type="line"/>
      <point x="511" y="391" type="line"/>
      <point x="505" y="413" type="line"/>
      <point x="422" y="461" type="line"/>
    </contour>
    <contour>
      <point x="168" y="69" type="line"/>
      <point x="25" y="69" type="line"/>
      <point x="8" y="50" type="line"/>
      <point x="158" y="50" type="line"/>
    </contour>
    <contour>
      <point x="91" y="171" type="line"/>
      <point x="75" y="179" type="line"/>
      <point x="0" y="50" type="line"/>
      <point x="22" y="50" type="line"/>
    </contour>
    <contour>
      <point x="190" y="202" type="line"/>
      <point x="176" y="213" type="line"/>
      <point x="127" y="147" type="line"/>
      <point x="148" y="147" type="line"/>
    </contour>
    <contour>
      <point x="78" y="158" type="line"/>
      <point x="182" y="202" type="line"/>
      <point x="158" y="210" type="line"/>
      <point x="67" y="173" type="line"/>
    </contour>
    <contour>
      <point x="151" y="166" type="line"/>
      <point x="136" y="151" type="line"/>
      <point x="150" y="50" type="line"/>
      <point x="167" y="65" type="line"/>
    </contour>
    <contour>
      <point x="143" y="167" type="line"/>
      <point x="12" y="66" type="line"/>
      <point x="18" y="50" type="line"/>
      <point x="150" y="152" type="line"/>
    </contour>
    <contour>
      <point x="174" y="215" type="line"/>
      <point x="188" y="204" type="line"/>
      <point x="418" y="512" type="line"/>
      <point x="402" y="518" type="line"/>
    </contour>
    <contour>
      <point x="102" y="222" type="line"/>
      <point x="114" y="212" type="line"/>
      <point x="267" y="426" type="line"/>
      <point x="251" y="433" type="line"/>
    </contour>
    <contour>
      <point x="275" y="211" type="line"/>
      <point x="295" y="208" type="line"/>
      <point x="435" y="455" type="line"/>
      <point x="413" y="455" type="line"/>
    </contour>
    <contour>
      <point x="180" y="200" type="line"/>
      <point x="286" y="200" type="line"/>
      <point x="288" y="216" type="line"/>
      <point x="179" y="216" type="line"/>
    </contour>
    <contour>
      <point x="375" y="480" type="line"/>
      <point x="252" y="433" type="line"/>
      <point x="260" y="415" type="line"/>
      <point x="389" y="468" type="line"/>
    </contour>
    <contour>
      <point x="188" y="50" type="line"/>
      <point x="198" y="66" type="line"/>
      <point x="173" y="82" type="line"/>
      <point x="161" y="68" type="line"/>
    </contour>
    <contour>
      <point x="455" y="480" type="line"/>
      <point x="437" y="468" type="line"/>
      <point x="509" y="398" type="line"/>
      <point x="525" y="411" type="line"/>
    </contour>
    <contour>
      <point x="350" y="550" type="line"/>
      <point x="320" y="508" type="line"/>
      <point x="339" y="498" type="line"/>
      <point x="375" y="550" type="line"/>
    </contour>
    <contour>
      <point x="338" y="550" type="line"/>
      <point x="155" y="550" type="line"/>
      <point x="155" y="532" type="line"/>
      <point x="338" y="532" type="line"/>
    </contour>
    <contour>
      <point x="330" y="516" type="line"/>
      <point x="316" y="502" type="line"/>
      <point x="421" y="441" type="line"/>
      <point x="435" y="455" type="line"/>
    </contour>
    <contour>
      <point x="360" y="531" type="line"/>
      <point x="496" y="531" type="line"/>
      <point x="513" y="550" type="line"/>
      <point x="370" y="550" type="line"/>
    </contour>
    <contour>
      <point x="438" y="468" type="line"/>
      <point x="452" y="456" type="line"/>
      <point x="518" y="550" type="line"/>
      <point x="496" y="550" type="line"/>
    </contour>
    <contour>
      <point x="444" y="475" type="line"/>
      <point x="415" y="455" type="line"/>
      <point x="425" y="438" type="line"/>
      <point x="452" y="456" type="line"/>
    </contour>
    <contour>
      <point x="396" y="504" type="line"/>
      <point x="408" y="519" type="line"/>
      <point x="362" y="550" type="line"/>
      <point x="348" y="535" type="line"/>
    </contour>
    <contour>
      <point x="411" y="503" type="line"/>
      <point x="506" y="534" type="line"/>
      <point x="503" y="550" type="line"/>
      <point x="404" y="518" type="line"/>
    </contour>
    <contour>
      <point x="338" y="550" type="line"/>
      <point x="328" y="534" type="line"/>
      <point x="350" y="520" type="line"/>
      <point x="362" y="534" type="line"/>
    </contour>
  </outline>
</glyph>
<glyph name="Thorn" format="2">
  <advance width="568"/>
  <unicode hex="00DE"/>
  <outline>
    <contour>
      <point x="5" y="549" type="line"/>
      <point x="5" y="50" type="line"/>
      <point x="25" y="50" type="line"/>
      <point x="25" y="549" type="line"/>
    </contour>
    <contour>
      <point x="222" y="138" type="line"/>
      <point x="222" y="50" type="line"/>
      <point x="242" y="50" type="line"/>
      <point x="242" y="138" type="line"/>
    </contour>
    <contour>
      <point x="235" y="70" type="line"/>
      <point x="10" y="70" type="line"/>
      <point x="9" y="50" type="line"/>
      <point x="235" y="50" type="line"/>
    </contour>
    <contour>
      <point x="406" y="149" type="line"/>
      <point x="222" y="149" type="line"/>
      <point x="222" y="129" type="line"/>
      <point x="406" y="129" type="line"/>
    </contour>
    <contour>
      <point x="404" y="501" type="line"/>
      <point x="235" y="501" type="line"/>
      <point x="235" y="481" type="line"/>
      <point x="404" y="481" type="line"/>
    </contour>
    <contour>
      <point x="221" y="356" type="line"/>
      <point x="221" y="298" type="line"/>
      <point x="240" y="298" type="line"/>
      <point x="240" y="356" type="line"/>
    </contour>
    <contour>
      <point x="429" y="410" type="line"/>
      <point x="429" y="333" type="line"/>
      <point x="448" y="333" type="line"/>
      <point x="448" y="410" type="line"/>
    </contour>
    <contour>
      <point x="18" y="50" type="line"/>
      <point x="130" y="207" type="line"/>
      <point x="117" y="220" type="line"/>
      <point x="5" y="63" type="line"/>
    </contour>
    <contour>
      <point x="229" y="50" type="line"/>
      <point x="242" y="63" type="line"/>
      <point x="133" y="220" type="line"/>
      <point x="120" y="207" type="line"/>
    </contour>
    <contour>
      <point x="115" y="205" type="line"/>
      <point x="135" y="205" type="line"/>
      <point x="135" y="505" type="line"/>
      <point x="115" y="508" type="line"/>
    </contour>
    <contour>
      <point x="233" y="123" type="line"/>
      <point x="246" y="141" type="line"/>
      <point x="138" y="266" type="line"/>
      <point x="129" y="246" type="line"/>
    </contour>
    <contour>
      <point x="360" y="463" type="line"/>
      <point x="378" y="454" type="line"/>
      <point x="406" y="486" type="line"/>
      <point x="391" y="496" type="line"/>
    </contour>
    <contour>
      <point x="357" y="459" type="line"/>
      <point x="435" y="396" type="line"/>
      <point x="448" y="410" type="line"/>
      <point x="377" y="470" type="line"/>
    </contour>
    <contour>
      <point x="389" y="488" type="line"/>
      <point x="550" y="366" type="line"/>
      <point x="563" y="379" type="line"/>
      <point x="404" y="501" type="line"/>
    </contour>
    <contour>
      <point x="437" y="397" type="line"/>
      <point x="560" y="363" type="line"/>
      <point x="550" y="384" type="line"/>
      <point x="426" y="419" type="line"/>
    </contour>
    <contour>
      <point x="541" y="379" type="line"/>
      <point x="541" y="238" type="line"/>
      <point x="563" y="238" type="line"/>
      <point x="563" y="379" type="line"/>
    </contour>
    <contour>
      <point x="391" y="145" type="line"/>
      <point x="406" y="129" type="line"/>
      <point x="563" y="238" type="line"/>
      <point x="552" y="254" type="line"/>
    </contour>
    <contour>
      <point x="434" y="351" type="line"/>
      <point x="424" y="337" type="line"/>
      <point x="550" y="232" type="line"/>
      <point x="555" y="253" type="line"/>
    </contour>
    <contour>
      <point x="333" y="270" type="line"/>
      <point x="394" y="131" type="line"/>
      <point x="409" y="148" type="line"/>
      <point x="352" y="274" type="line"/>
    </contour>
    <contour>
      <point x="339" y="271" type="line"/>
      <point x="351" y="256" type="line"/>
      <point x="445" y="329" type="line"/>
      <point x="438" y="344" type="line"/>
    </contour>
    <contour>
      <point x="350" y="275" type="line"/>
      <point x="135" y="275" type="line"/>
      <point x="135" y="255" type="line"/>
      <point x="350" y="255" type="line"/>
    </contour>
    <contour>
      <point x="377" y="470" type="line"/>
      <point x="129" y="470" type="line"/>
      <point x="129" y="450" type="line"/>
      <point x="377" y="450" type="line"/>
    </contour>
    <contour>
      <point x="223" y="311" type="line"/>
      <point x="123" y="271" type="line"/>
      <point x="134" y="255" type="line"/>
      <point x="243" y="303" type="line"/>
    </contour>
    <contour>
      <point x="294" y="308" type="line"/>
      <point x="343" y="261" type="line"/>
      <point x="357" y="275" type="line"/>
      <point x="313" y="309" type="line"/>
    </contour>
    <contour>
      <point x="313" y="314" type="line"/>
      <point x="230" y="314" type="line"/>
      <point x="230" y="297" type="line"/>
      <point x="313" y="297" type="line"/>
    </contour>
    <contour>
      <point x="308" y="356" type="line"/>
      <point x="221" y="356" type="line"/>
      <point x="221" y="337" type="line"/>
      <point x="301" y="337" type="line"/>
    </contour>
    <contour>
      <point x="292" y="344" type="line"/>
      <point x="312" y="345" type="line"/>
      <point x="385" y="457" type="line"/>
      <point x="368" y="465" type="line"/>
    </contour>
    <contour>
      <point x="326" y="332" type="line"/>
      <point x="326" y="312" type="line"/>
      <point x="345" y="312" type="line"/>
      <point x="345" y="331" type="line"/>
    </contour>
    <contour>
      <point x="340" y="324" type="line"/>
      <point x="440" y="396" type="line"/>
      <point x="431" y="410" type="line"/>
      <point x="334" y="339" type="line"/>
    </contour>
    <contour>
      <point x="340" y="320" type="line"/>
      <point x="323" y="300" type="line"/>
      <point x="436" y="333" type="line"/>
      <point x="444" y="355" type="line"/>
    </contour>
    <contour>
      <point x="295" y="307" type="line"/>
      <point x="308" y="294" type="line"/>
      <point x="348" y="308" type="line"/>
      <point x="334" y="323" type="line"/>
    </contour>
    <contour>
      <point x="296" y="339" type="line"/>
      <point x="336" y="323" type="line"/>
      <point x="347" y="336" type="line"/>
      <point x="311" y="353" type="line"/>
    </contour>
    <contour>
      <point x="120" y="492" type="line"/>
      <point x="128" y="514" type="line"/>
      <point x="31" y="538" type="line"/>
      <point x="15" y="525" type="line"/>
    </contour>
    <contour>
      <point x="227" y="550" type="line"/>
      <point x="5" y="550" type="line"/>
      <point x="5" y="530" type="line"/>
      <point x="227" y="530" type="line"/>
    </contour>
    <contour>
      <point x="123" y="492" type="line"/>
      <point x="228" y="525" type="line"/>
      <point x="212" y="538" type="line"/>
      <point x="115" y="514" type="line"/>
    </contour>
    <contour>
      <point x="228" y="331" type="line"/>
      <point x="240" y="349" type="line"/>
      <point x="128" y="471" type="line"/>
      <point x="119" y="451" type="line"/>
    </contour>
    <contour>
      <point x="222" y="550" type="line"/>
      <point x="222" y="481" type="line"/>
      <point x="242" y="481" type="line"/>
      <point x="242" y="550" type="line"/>
    </contour>
    <contour>
      <point x="233" y="499" type="line"/>
      <point x="123" y="476" type="line"/>
      <point x="134" y="460" type="line"/>
      <point x="243" y="481" type="line"/>
    </contour>
  </outline>
</glyph>
<glyph name="Eng" format="2">
  <advance width="631"/>
  <unicode hex="014A"/>
  <outline>
    <contour>
      <point x="10" y="50" type="line"/>
      <point x="30" y="50" type="line"/>
      <point x="30" y="550" type="line"/>
      <point x="10" y="550" type="line"/>
    </contour>
    <contour>
      <point x="172" y="50" type="line"/>
      <point x="192" y="50" type="line"/>
      <point x="192" y="374" type="line"/>
      <point x="172" y="411" type="line"/>
    </contour>
    <contour>
      <point x="601" y="16" type="line"/>
      <point x="621" y="16" type="line"/>
      <point x="621" y="550" type="line"/>
      <point x="601" y="550" type="line"/>
    </contour>
    <contour>
      <point x="509" y="185" type="line"/>
      <point x="529" y="161" type="line"/>
      <point x="529" y="505" type="line"/>
      <point x="509" y="505" type="line"/>
    </contour>
    <contour>
      <point x="610" y="63" type="line"/>
      <point x="617" y="86" type="line"/>
      <point x="480" y="234" type="line"/>
      <point x="468" y="214" type="line"/>
    </contour>
    <contour>
      <point x="398" y="50" type="line"/>
      <point x="489" y="211" type="line"/>
      <point x="480" y="234" type="line"/>
      <point x="387" y="69" type="line"/>
    </contour>
    <contour>
      <point x="24" y="59" type="line"/>
      <point x="104" y="185" type="line"/>
      <point x="91" y="200" type="line"/>
      <point x="11" y="72" type="line"/>
    </contour>
    <contour>
      <point x="179" y="61" type="line"/>
      <point x="191" y="75" type="line"/>
      <point x="99" y="201" type="line"/>
      <point x="88" y="183" type="line"/>
    </contour>
    <contour>
      <point x="383" y="50" type="line"/>
      <point x="402" y="58" type="line"/>
      <point x="105" y="539" type="line"/>
      <point x="87" y="531" type="line"/>
    </contour>
    <contour>
      <point x="11" y="50" type="line"/>
      <point x="192" y="50" type="line"/>
      <point x="192" y="70" type="line"/>
      <point x="11" y="70" type="line"/>
    </contour>
    <contour>
      <point x="10" y="530" type="line"/>
      <point x="331" y="530" type="line"/>
      <point x="331" y="550" type="line"/>
      <point x="10" y="550" type="line"/>
    </contour>
    <contour>
      <point x="289" y="497" type="line"/>
      <point x="335" y="532" type="line"/>
      <point x="324" y="547" type="line"/>
      <point x="271" y="512" type="line"/>
    </contour>
    <contour>
      <point x="451" y="283" type="line"/>
      <point x="451" y="317" type="line"/>
      <point x="331" y="550" type="line"/>
      <point x="316" y="541" type="line"/>
    </contour>
    <contour>
      <point x="440" y="149" type="line"/>
      <point x="460" y="178" type="line"/>
      <point x="460" y="550" type="line"/>
      <point x="440" y="550" type="line"/>
    </contour>
    <contour>
      <point x="85" y="173" type="line"/>
      <point x="105" y="173" type="line"/>
      <point x="105" y="532" type="line"/>
      <point x="85" y="532" type="line"/>
    </contour>
    <contour>
      <point x="440" y="530" type="line"/>
      <point x="621" y="530" type="line"/>
      <point x="621" y="550" type="line"/>
      <point x="440" y="550" type="line"/>
    </contour>
    <contour>
      <point x="521" y="490" type="line"/>
      <point x="619" y="523" type="line"/>
      <point x="610" y="538" type="line"/>
      <point x="511" y="508" type="line"/>
    </contour>
    <contour>
      <point x="441" y="150" type="line"/>
      <point x="456" y="166" type="line"/>
      <point x="282" y="516" type="line"/>
      <point x="264" y="508" type="line"/>
    </contour>
    <contour>
      <point x="275" y="493" type="line"/>
      <point x="284" y="512" type="line"/>
      <point x="73" y="550" type="line"/>
      <point x="62" y="535" type="line"/>
    </contour>
    <contour>
      <point x="519" y="489" type="line"/>
      <point x="529" y="507" type="line"/>
      <point x="450" y="541" type="line"/>
      <point x="441" y="526" type="line"/>
    </contour>
    <contour>
      <point x="453" y="-130" type="line"/>
      <point x="621" y="16" type="line"/>
      <point x="607" y="30" type="line"/>
      <point x="437" y="-116" type="line"/>
    </contour>
    <contour>
      <point x="275" y="-130" type="line"/>
      <point x="453" y="-130" type="line"/>
      <point x="451" y="-112" type="line"/>
      <point x="275" y="-112" type="line"/>
    </contour>
    <contour>
      <point x="275" y="-130" type="line"/>
      <point x="295" y="-130" type="line"/>
      <point x="295" y="25" type="line"/>
      <point x="275" y="25" type="line"/>
    </contour>
    <contour>
      <point x="297" y="-126" type="line"/>
      <point x="404" y="-3" type="line"/>
      <point x="390" y="8" type="line"/>
      <point x="285" y="-111" type="line"/>
    </contour>
    <contour>
      <point x="439" y="-121" type="line"/>
      <point x="456" y="-112" type="line"/>
      <point x="404" y="6" type="line"/>
      <point x="387" y="-3" type="line"/>
    </contour>
    <contour>
      <point x="276" y="5" type="line"/>
      <point x="355" y="5" type="line"/>
      <point x="355" y="25" type="line"/>
      <point x="276" y="25" type="line"/>
    </contour>
    <contour>
      <point x="392" y="-8" type="line"/>
      <point x="401" y="10" type="line"/>
      <point x="355" y="20" type="line"/>
      <point x="338" y="6" type="line"/>
    </contour>
    <contour>
      <point x="355" y="5" type="line"/>
      <point x="402" y="34" type="line"/>
      <point x="388" y="49" type="line"/>
      <point x="341" y="20" type="line"/>
    </contour>
    <contour>
      <point x="400" y="-8" type="line"/>
      <point x="506" y="71" type="line"/>
      <point x="492" y="85" type="line"/>
      <point x="386" y="6" type="line"/>
    </contour>
    <contour>
      <point x="495" y="67" type="line"/>
      <point x="495" y="88" type="line"/>
      <point x="388" y="49" type="line"/>
      <point x="392" y="30" type="line"/>
    </contour>
    <contour>
      <point x="484" y="69" type="line"/>
      <point x="615" y="12" type="line"/>
      <point x="621" y="29" type="line"/>
      <point x="490" y="86" type="line"/>
    </contour>
    <contour>
      <point x="382" y="34" type="line"/>
      <point x="402" y="34" type="line"/>
      <point x="402" y="68" type="line"/>
      <point x="382" y="68" type="line"/>
    </contour>
    <contour>
      <point x="486" y="71" type="line"/>
      <point x="506" y="71" type="line"/>
      <point x="506" y="194" type="line"/>
      <point x="486" y="204" type="line"/>
    </contour>
  </outline>
</glyph>
<glyph name="OE" format="2">
  <advance width="770"/>
  <unicode hex="0152"/>
  <anchor x="515" y="50" name="bottom"/>
  <anchor x="703" y="60" name="ogonek"/>
  <anchor x="515" y="550" name="top"/>
  <anchor x="300" y="550" name="topleft"/>
  <outline>
    <contour>
      <point x="155" y="50" type="line"/>
      <point x="169" y="64" type="line"/>
      <point x="19" y="204" type="line"/>
      <point x="5" y="190" type="line"/>
    </contour>
    <contour>
      <point x="25" y="187" type="line"/>
      <point x="108" y="269" type="line"/>
      <point x="102" y="289" type="line"/>
      <point x="19" y="207" type="line"/>
    </contour>
    <contour>
      <point x="167" y="59" type="line"/>
      <point x="215" y="198" type="line"/>
      <point x="200" y="207" type="line"/>
      <point x="152" y="68" type="line"/>
    </contour>
    <contour>
      <point x="155" y="50" type="line"/>
      <point x="325" y="50" type="line"/>
      <point x="325" y="70" type="line"/>
      <point x="155" y="70" type="line"/>
    </contour>
    <contour>
      <point x="200" y="189" type="line"/>
      <point x="214" y="203" type="line"/>
      <point x="109" y="289" type="line"/>
      <point x="95" y="275" type="line"/>
    </contour>
    <contour>
      <point x="5" y="190" type="line"/>
      <point x="25" y="190" type="line"/>
      <point x="25" y="410" type="line"/>
      <point x="5" y="410" type="line"/>
    </contour>
    <contour>
      <point x="110" y="266" type="line"/>
      <point x="235" y="233" type="line"/>
      <point x="229" y="254" type="line"/>
      <point x="104" y="287" type="line"/>
    </contour>
    <contour>
      <point x="200" y="189" type="line"/>
      <point x="327" y="189" type="line"/>
      <point x="327" y="207" type="line"/>
      <point x="200" y="207" type="line"/>
    </contour>
    <contour>
      <point x="212" y="193" type="line"/>
      <point x="263" y="224" type="line"/>
      <point x="248" y="234" type="line"/>
      <point x="197" y="203" type="line"/>
    </contour>
    <contour>
      <point x="95" y="275" type="line"/>
      <point x="115" y="275" type="line"/>
      <point x="115" y="415" type="line"/>
      <point x="95" y="415" type="line"/>
    </contour>
    <contour>
      <point x="247" y="219" type="line"/>
      <point x="261" y="233" type="line"/>
      <point x="229" y="254" type="line"/>
      <point x="215" y="240" type="line"/>
    </contour>
    <contour>
      <point x="247" y="219" type="line"/>
      <point x="283" y="219" type="line"/>
      <point x="283" y="237" type="line"/>
      <point x="247" y="237" type="line"/>
    </contour>
    <contour>
      <point x="102" y="404" type="line"/>
      <point x="108" y="421" type="line"/>
      <point x="25" y="413" type="line"/>
      <point x="19" y="396" type="line"/>
    </contour>
    <contour>
      <point x="215" y="240" type="line"/>
      <point x="235" y="240" type="line"/>
      <point x="235" y="355" type="line"/>
      <point x="215" y="355" type="line"/>
    </contour>
    <contour>
      <point x="229" y="341" type="line"/>
      <point x="235" y="357" type="line"/>
      <point x="115" y="417" type="line"/>
      <point x="109" y="401" type="line"/>
    </contour>
    <contour>
      <point x="19" y="396" type="line"/>
      <point x="169" y="536" type="line"/>
      <point x="155" y="550" type="line"/>
      <point x="5" y="410" type="line"/>
    </contour>
    <contour>
      <point x="109" y="401" type="line"/>
      <point x="214" y="502" type="line"/>
      <point x="200" y="516" type="line"/>
      <point x="95" y="415" type="line"/>
    </contour>
    <contour>
      <point x="229" y="341" type="line"/>
      <point x="261" y="372" type="line"/>
      <point x="247" y="386" type="line"/>
      <point x="215" y="355" type="line"/>
    </contour>
    <contour>
      <point x="247" y="368" type="line"/>
      <point x="283" y="368" type="line"/>
      <point x="283" y="386" type="line"/>
      <point x="247" y="386" type="line"/>
    </contour>
    <contour>
      <point x="247" y="368" type="line"/>
      <point x="262" y="378" type="line"/>
      <point x="210" y="510" type="line"/>
      <point x="195" y="500" type="line"/>
    </contour>
    <contour>
      <point x="196" y="499" type="line"/>
      <point x="216" y="508" type="line"/>
      <point x="172" y="542" type="line"/>
      <point x="155" y="533" type="line"/>
    </contour>
    <contour>
      <point x="155" y="532" type="line"/>
      <point x="333" y="532" type="line"/>
      <point x="331" y="550" type="line"/>
      <point x="155" y="550" type="line"/>
    </contour>
    <contour>
      <point x="415" y="213" type="line"/>
      <point x="435" y="213" type="line"/>
      <point x="435" y="501" type="line"/>
      <point x="415" y="501" type="line"/>
    </contour>
    <contour>
      <point x="535" y="253" type="line"/>
      <point x="548" y="267" type="line"/>
      <point x="430" y="377" type="line"/>
      <point x="415" y="364" type="line"/>
    </contour>
    <contour>
      <point x="535" y="255" type="line"/>
      <point x="665" y="255" type="line"/>
      <point x="665" y="275" type="line"/>
      <point x="535" y="275" type="line"/>
    </contour>
    <contour>
      <point x="425" y="372" type="line"/>
      <point x="548" y="380" type="line"/>
      <point x="535" y="395" type="line"/>
      <point x="416" y="388" type="line"/>
    </contour>
    <contour>
      <point x="417" y="486" type="line"/>
      <point x="430" y="499" type="line"/>
      <point x="328" y="550" type="line"/>
      <point x="315" y="537" type="line"/>
    </contour>
    <contour>
      <point x="435" y="357" type="line"/>
      <point x="555" y="357" type="line"/>
      <point x="565" y="377" type="line"/>
      <point x="435" y="377" type="line"/>
    </contour>
    <contour>
      <point x="535" y="380" type="line"/>
      <point x="665" y="380" type="line"/>
      <point x="665" y="400" type="line"/>
      <point x="535" y="400" type="line"/>
    </contour>
    <contour>
      <point x="655" y="255" type="line"/>
      <point x="668" y="267" type="line"/>
      <point x="550" y="377" type="line"/>
      <point x="535" y="366" type="line"/>
    </contour>
    <contour>
      <point x="552" y="357" type="line"/>
      <point x="668" y="380" type="line"/>
      <point x="655" y="395" type="line"/>
      <point x="535" y="372" type="line"/>
    </contour>
    <contour>
      <point x="655" y="255" type="line"/>
      <point x="675" y="255" type="line"/>
      <point x="675" y="400" type="line"/>
      <point x="655" y="400" type="line"/>
    </contour>
    <contour>
      <point x="525" y="238" type="line"/>
      <point x="545" y="238" type="line"/>
      <point x="545" y="268" type="line"/>
      <point x="525" y="268" type="line"/>
    </contour>
    <contour>
      <point x="317" y="50" type="line"/>
      <point x="755" y="50" type="line"/>
      <point x="755" y="70" type="line"/>
      <point x="317" y="70" type="line"/>
    </contour>
    <contour>
      <point x="435" y="219" type="line"/>
      <point x="543" y="232" type="line"/>
      <point x="530" y="247" type="line"/>
      <point x="420" y="230" type="line"/>
    </contour>
    <contour>
      <point x="421" y="203" type="line"/>
      <point x="645" y="203" type="line"/>
      <point x="645" y="223" type="line"/>
      <point x="421" y="223" type="line"/>
    </contour>
    <contour>
      <point x="529" y="231" type="line"/>
      <point x="755" y="231" type="line"/>
      <point x="755" y="246" type="line"/>
      <point x="529" y="246" type="line"/>
    </contour>
    <contour>
      <point x="745" y="60" type="line"/>
      <point x="758" y="72" type="line"/>
      <point x="640" y="223" type="line"/>
      <point x="625" y="212" type="line"/>
    </contour>
    <contour>
      <point x="642" y="203" type="line"/>
      <point x="758" y="231" type="line"/>
      <point x="745" y="246" type="line"/>
      <point x="625" y="222" type="line"/>
    </contour>
    <contour>
      <point x="745" y="50" type="line"/>
      <point x="765" y="50" type="line"/>
      <point x="765" y="246" type="line"/>
      <point x="745" y="246" type="line"/>
    </contour>
    <contour>
      <point x="325" y="550" type="line"/>
      <point x="325" y="530" type="line"/>
      <point x="755" y="530" type="line"/>
      <point x="755" y="550" type="line"/>
    </contour>
    <contour>
      <point x="436" y="495" type="line"/>
      <point x="421" y="484" type="line"/>
      <point x="531" y="380" type="line"/>
      <point x="544" y="395" type="line"/>
    </contour>
    <contour>
      <point x="421" y="503" type="line"/>
      <point x="421" y="483" type="line"/>
      <point x="643" y="483" type="line"/>
      <point x="643" y="503" type="line"/>
    </contour>
    <contour>
      <point x="531" y="400" type="line"/>
      <point x="531" y="380" type="line"/>
      <point x="755" y="380" type="line"/>
      <point x="755" y="400" type="line"/>
    </contour>
    <contour>
      <point x="741" y="543" type="line"/>
      <point x="624" y="500" type="line"/>
      <point x="639" y="486" type="line"/>
      <point x="758" y="530" type="line"/>
    </contour>
    <contour>
      <point x="641" y="502" type="line"/>
      <point x="623" y="493" type="line"/>
      <point x="745" y="387" type="line"/>
      <point x="758" y="402" type="line"/>
    </contour>
    <contour>
      <point x="745" y="550" type="line"/>
      <point x="745" y="380" type="line"/>
      <point x="765" y="380" type="line"/>
      <point x="765" y="550" type="line"/>
    </contour>
    <contour>
      <point x="525" y="382" type="line"/>
      <point x="545" y="382" type="line"/>
      <point x="545" y="398" type="line"/>
      <point x="525" y="398" type="line"/>
    </contour>
    <contour>
      <point x="283" y="368" type="line"/>
      <point x="335" y="500" type="line"/>
      <point x="320" y="510" type="line"/>
      <point x="268" y="378" type="line"/>
    </contour>
    <contour>
      <point x="336" y="499" type="line"/>
      <point x="334" y="536" type="line"/>
      <point x="317" y="542" type="line"/>
      <point x="319" y="505" type="line"/>
    </contour>
    <contour>
      <point x="318" y="193" type="line"/>
      <point x="333" y="203" type="line"/>
      <point x="279" y="233" type="line"/>
      <point x="264" y="223" type="line"/>
    </contour>
    <contour>
      <point x="313" y="59" type="line"/>
      <point x="332" y="68" type="line"/>
      <point x="336" y="194" type="line"/>
      <point x="435" y="275" type="line"/>
      <point x="421" y="289" type="line"/>
      <point x="316" y="203" type="line"/>
    </contour>
    <contour>
      <point x="420" y="266" type="line"/>
      <point x="426" y="287" type="line"/>
      <point x="301" y="254" type="line"/>
      <point x="295" y="232" type="line"/>
    </contour>
    <contour>
      <point x="295" y="240" type="line"/>
      <point x="315" y="240" type="line"/>
      <point x="315" y="355" type="line"/>
      <point x="295" y="355" type="line"/>
    </contour>
    <contour>
      <point x="301" y="341" type="line"/>
      <point x="421" y="401" type="line"/>
      <point x="415" y="417" type="line"/>
      <point x="295" y="357" type="line"/>
    </contour>
    <contour>
      <point x="200" y="498" type="line"/>
      <point x="330" y="498" type="line"/>
      <point x="330" y="516" type="line"/>
      <point x="200" y="516" type="line"/>
    </contour>
    <contour>
      <point x="421" y="401" type="line"/>
      <point x="435" y="415" type="line"/>
      <point x="330" y="516" type="line"/>
      <point x="316" y="502" type="line"/>
    </contour>
    <contour>
      <point x="283" y="219" type="line"/>
      <point x="315" y="240" type="line"/>
      <point x="301" y="254" type="line"/>
      <point x="269" y="233" type="line"/>
    </contour>
    <contour>
      <point x="301" y="341" type="line"/>
      <point x="315" y="355" type="line"/>
      <point x="283" y="386" type="line"/>
      <point x="269" y="372" type="line"/>
    </contour>
    <contour>
      <point x="336" y="59" type="line"/>
      <point x="437" y="214" type="line"/>
      <point x="418" y="223" type="line"/>
      <point x="317" y="68" type="line"/>
    </contour>
  </outline>
</glyph>
<glyph name="quoteleft" format="2">
  <advance width="192"/>
  <unicode hex="2018"/>
  <outline>
    <contour>
      <point x="162" y="443" type="line"/>
      <point x="30" y="443" type="line"/>
      <point x="30" y="429" type="line"/>
      <point x="162" y="429" type="line"/>
    </contour>
    <contour>
      <point x="151" y="443" type="line"/>
      <point x="94" y="424" type="line"/>
      <point x="102" y="408" type="line"/>
      <point x="162" y="432" type="line"/>
    </contour>
    <contour>
      <point x="42" y="443" type="line"/>
      <point x="30" y="432" type="line"/>
      <point x="92" y="407" type="line"/>
      <point x="99" y="423" type="line"/>
    </contour>
    <contour>
      <point x="162" y="443" type="line"/>
      <point x="146" y="443" type="line"/>
      <point x="146" y="301" type="line"/>
      <point x="162" y="301" type="line"/>
    </contour>
    <contour>
      <point x="102" y="420" type="line"/>
      <point x="91" y="420" type="line"/>
      <point x="91" y="406" type="line"/>
      <point x="102" y="406" type="line"/>
    </contour>
    <contour>
      <point x="46" y="443" type="line"/>
      <point x="30" y="443" type="line"/>
      <point x="30" y="301" type="line"/>
      <point x="46" y="301" type="line"/>
    </contour>
    <contour>
      <point x="101" y="418" type="line"/>
      <point x="94" y="402" type="line"/>
      <point x="151" y="301" type="line"/>
      <point x="162" y="313" type="line"/>
    </contour>
    <contour>
      <point x="160" y="316" type="line"/>
      <point x="30" y="316" type="line"/>
      <point x="30" y="301" type="line"/>
      <point x="160" y="301" type="line"/>
    </contour>
    <contour>
      <point x="92" y="418" type="line"/>
      <point x="31" y="313" type="line"/>
      <point x="42" y="301" type="line"/>
      <point x="99" y="402" type="line"/>
    </contour>
    <contour>
      <point x="162" y="545" type="line"/>
      <point x="146" y="545" type="line"/>
      <point x="146" y="481" type="line"/>
      <point x="162" y="479" type="line"/>
    </contour>
    <contour>
      <point x="152" y="491" type="line"/>
      <point x="99" y="443" type="line"/>
      <point x="113" y="432" type="line"/>
      <point x="162" y="479" type="line"/>
    </contour>
    <contour>
      <point x="150" y="555" type="line"/>
      <point x="30" y="443" type="line"/>
      <point x="41" y="431" type="line"/>
      <point x="162" y="544" type="line"/>
      <point x="162" y="555" type="line"/>
    </contour>
  </outline>
</glyph>
<glyph name="quotedblleft" format="2">
  <advance width="342"/>
  <unicode hex="201C"/>
  <outline>
    <contour>
      <point x="312" y="443" type="line"/>
      <point x="180" y="443" type="line"/>
      <point x="180" y="429" type="line"/>
      <point x="312" y="429" type="line"/>
    </contour>
    <contour>
      <point x="301" y="443" type="line"/>
      <point x="244" y="424" type="line"/>
      <point x="252" y="408" type="line"/>
      <point x="312" y="432" type="line"/>
    </contour>
    <contour>
      <point x="192" y="443" type="line"/>
      <point x="180" y="432" type="line"/>
      <point x="242" y="407" type="line"/>
      <point x="249" y="423" type="line"/>
    </contour>
    <contour>
      <point x="312" y="443" type="line"/>
      <point x="296" y="443" type="line"/>
      <point x="296" y="301" type="line"/>
      <point x="312" y="301" type="line"/>
    </contour>
    <contour>
      <point x="252" y="420" type="line"/>
      <point x="241" y="420" type="line"/>
      <point x="241" y="406" type="line"/>
      <point x="252" y="406" type="line"/>
    </contour>
    <contour>
      <point x="196" y="443" type="line"/>
      <point x="180" y="443" type="line"/>
      <point x="180" y="301" type="line"/>
      <point x="196" y="301" type="line"/>
    </contour>
    <contour>
      <point x="251" y="418" type="line"/>
      <point x="244" y="402" type="line"/>
      <point x="301" y="301" type="line"/>
      <point x="312" y="313" type="line"/>
    </contour>
    <contour>
      <point x="310" y="316" type="line"/>
      <point x="180" y="316" type="line"/>
      <point x="180" y="301" type="line"/>
      <point x="310" y="301" type="line"/>
    </contour>
    <contour>
      <point x="242" y="418" type="line"/>
      <point x="181" y="313" type="line"/>
      <point x="192" y="301" type="line"/>
      <point x="249" y="402" type="line"/>
    </contour>
    <contour>
      <point x="312" y="545" type="line"/>
      <point x="296" y="545" type="line"/>
      <point x="296" y="481" type="line"/>
      <point x="312" y="479" type="line"/>
    </contour>
    <contour>
      <point x="302" y="491" type="line"/>
      <point x="249" y="443" type="line"/>
      <point x="263" y="432" type="line"/>
      <point x="312" y="479" type="line"/>
    </contour>
    <contour>
      <point x="300" y="555" type="line"/>
      <point x="180" y="443" type="line"/>
      <point x="191" y="431" type="line"/>
      <point x="312" y="544" type="line"/>
      <point x="312" y="555" type="line"/>
    </contour>
    <contour>
      <point x="162" y="443" type="line"/>
      <point x="30" y="443" type="line"/>
      <point x="30" y="429" type="line"/>
      <point x="162" y="429" type="line"/>
    </contour>
    <contour>
      <point x="151" y="443" type="line"/>
      <point x="94" y="424" type="line"/>
      <point x="102" y="408" type="line"/>
      <point x="162" y="432" type="line"/>
    </contour>
    <contour>
      <point x="42" y="443" type="line"/>
      <point x="30" y="432" type="line"/>
      <point x="92" y="407" type="line"/>
      <point x="99" y="423" type="line"/>
    </contour>
    <contour>
      <point x="162" y="443" type="line"/>
      <point x="146" y="443" type="line"/>
      <point x="146" y="301" type="line"/>
      <point x="162" y="301" type="line"/>
    </contour>
    <contour>
      <point x="102" y="420" type="line"/>
      <point x="91" y="420" type="line"/>
      <point x="91" y="406" type="line"/>
      <point x="102" y="406" type="line"/>
    </contour>
    <contour>
      <point x="46" y="443" type="line"/>
      <point x="30" y="443" type="line"/>
      <point x="30" y="301" type="line"/>
      <point x="46" y="301" type="line"/>
    </contour>
    <contour>
      <point x="101" y="418" type="line"/>
      <point x="94" y="402" type="line"/>
      <point x="151" y="301" type="line"/>
      <point x="162" y="313" type="line"/>
    </contour>
    <contour>
      <point x="160" y="316" type="line"/>
      <point x="30" y="316" type="line"/>
      <point x="30" y="301" type="line"/>
      <point x="160" y="301" type="line"/>
    </contour>
    <contour>
      <point x="92" y="418" type="line"/>
      <point x="31" y="313" type="line"/>
      <point x="42" y="301" type="line"/>
      <point x="99" y="402" type="line"/>
    </contour>
    <contour>
      <point x="162" y="545" type="line"/>
      <point x="146" y="545" type="line"/>
      <point x="146" y="481" type="line"/>
      <point x="162" y="479" type="line"/>
    </contour>
    <contour>
      <point x="152" y="491" type="line"/>
      <point x="99" y="443" type="line"/>
      <point x="113" y="432" type="line"/>
      <point x="162" y="479" type="line"/>
    </contour>
    <contour>
      <point x="150" y="555" type="line"/>
      <point x="30" y="443" type="line"/>
      <point x="41" y="431" type="line"/>
      <point x="162" y="544" type="line"/>
      <point x="162" y="555" type="line"/>
    </contour>
  </outline>
</glyph>
